<svg width="44" height="44" viewBox="0 0 44 44" fill="none" xmlns="http://www.w3.org/2000/svg">
<rect width="44" height="44" rx="22" fill="white"/>
<path fill-rule="evenodd" clip-rule="evenodd" d="M34 33H29.4V24.9511C29.4 22.7431 28.426 21.5112 26.6791 21.5112C24.7782 21.5112 23.65 22.7949 23.65 24.9511V33H19.05V18.05H23.65V19.7312C23.65 19.7312 25.0932 17.1987 28.3454 17.1987C31.5988 17.1987 34 19.184 34 23.2918V33ZM13.8083 15.659C12.257 15.659 11 14.3918 11 12.829C11 11.2673 12.257 10 13.8083 10C15.3585 10 16.6154 11.2673 16.6154 12.829C16.6166 14.3918 15.3585 15.659 13.8083 15.659ZM11 33H16.75V18.05H11V33Z" fill="#5B94FF"/>
</svg>
