<svg width="44" height="44" viewBox="0 0 44 44" fill="none" xmlns="http://www.w3.org/2000/svg">
<rect width="44" height="44" rx="22" fill="white"/>
<path d="M28.0935 13.8529C28.1137 13.8527 28.134 13.8526 28.1548 13.8525C28.2197 13.8522 28.2846 13.8521 28.3495 13.8521C28.3661 13.8521 28.3661 13.8521 28.3831 13.8521C28.7322 13.852 29.076 13.8577 29.4221 13.9068C29.434 13.9085 29.4459 13.9102 29.4581 13.9119C30.9428 14.1236 32.347 14.6955 33.5485 15.6584C33.5732 15.6782 33.5732 15.6782 33.5985 15.6984C33.6876 15.7705 33.7741 15.8449 33.8587 15.9222C33.8817 15.943 33.9048 15.9638 33.9286 15.9838C34.0414 16.0796 34.1449 16.1849 34.2493 16.2896C34.2821 16.3225 34.315 16.3553 34.3479 16.3882C34.4499 16.4901 34.5505 16.592 34.6432 16.7026C34.6574 16.7188 34.6717 16.7351 34.6864 16.7518C35.7845 18.0259 36.4562 19.6419 36.6643 21.9068C36.6646 21.9239 36.665 21.941 36.6654 21.9587C36.6903 23.3493 36.3745 24.689 35.7548 25.9321C35.7477 25.9464 35.7406 25.9607 35.7332 25.9754C35.5698 26.3012 35.3783 26.6132 35.1653 26.9089C35.1559 26.9219 35.1465 26.935 35.1369 26.9484C35.0218 27.1075 34.9052 27.2645 34.7779 27.4142C34.7704 27.4232 34.7628 27.4322 34.7549 27.4414C34.7297 27.4714 34.7044 27.5012 34.679 27.531C34.6715 27.5399 34.664 27.5487 34.6563 27.5578C34.5088 27.7298 34.3526 27.8932 34.1925 28.0533C34.1631 28.0827 34.1339 28.1122 34.1047 28.1417C34.004 28.243 33.9021 28.3384 33.7899 28.427C33.7521 28.4571 33.7165 28.4887 33.6811 28.5216C33.5646 28.6261 33.4381 28.7186 33.3127 28.8121C33.3003 28.8213 33.2879 28.8306 33.2752 28.8401C32.0572 29.7458 30.5928 30.2753 29.0853 30.4121C29.0691 30.4137 29.0529 30.4153 29.0362 30.417C28.4727 30.466 27.8772 30.4576 27.3169 30.3784C27.305 30.3767 27.2931 30.375 27.2809 30.3733C25.6228 30.1369 24.1342 29.4467 22.6817 28.1854C22.6507 28.1544 22.6185 28.1258 22.5853 28.0973C22.4752 28.0023 22.3746 27.8987 22.28 27.7884C22.2476 27.7513 22.2144 27.7151 22.1809 27.679C22.0865 27.5772 21.9968 27.4725 21.9106 27.3637C21.9021 27.353 21.8936 27.3424 21.8849 27.3314C21.5779 26.9461 21.3059 26.5395 21.0724 26.1054C21.0584 26.0794 21.0442 26.0534 21.0299 26.0274C20.803 25.615 20.6296 25.1815 20.479 24.7363C20.4728 24.719 20.4665 24.7018 20.4601 24.684C20.4453 24.6352 20.4453 24.6352 20.4453 24.5679C20.9815 24.5636 21.5178 24.5604 22.054 24.5584C22.1174 24.5582 22.1807 24.5579 22.244 24.5577C22.2629 24.5576 22.2629 24.5576 22.2822 24.5575C22.4863 24.5567 22.6904 24.5553 22.8944 24.5536C23.1038 24.5518 23.3133 24.5508 23.5227 24.5504C23.6519 24.5502 23.7811 24.5494 23.9103 24.5479C24.0094 24.5468 24.1085 24.5467 24.2076 24.5469C24.2483 24.5469 24.2889 24.5465 24.3295 24.5458C24.6369 24.5407 24.6369 24.5407 24.7258 24.6083C24.7608 24.6555 24.7844 24.6993 24.8074 24.7531C24.8217 24.7748 24.8366 24.7961 24.8521 24.8169C24.8648 24.8351 24.8775 24.8533 24.8906 24.8721C24.9626 24.9741 25.0422 25.066 25.1274 25.1573C25.1454 25.1783 25.1633 25.1994 25.1811 25.2205C25.3282 25.3888 25.4897 25.5425 25.6664 25.6794C25.6825 25.6925 25.6986 25.7055 25.7152 25.719C26.6455 26.4592 27.8473 26.7548 29.0179 26.6226C29.8807 26.5134 30.7083 26.1371 31.359 25.5616C31.3804 25.543 31.3804 25.543 31.4022 25.524C31.5828 25.3648 31.7501 25.1959 31.8979 25.0058C31.9112 24.9892 31.9245 24.9727 31.9381 24.9556C32.2905 24.5126 32.5474 23.9989 32.7064 23.4563C32.7101 23.4436 32.7138 23.431 32.7176 23.418C33.0386 22.2939 32.8759 21.0639 32.3122 20.0451C32.1443 19.753 31.944 19.4857 31.717 19.2369C31.6912 19.2087 31.6657 19.1801 31.6405 19.1514C31.5628 19.0631 31.4828 18.9843 31.3927 18.9089C31.3772 18.8953 31.3616 18.8816 31.3456 18.8676C30.7375 18.3358 29.9681 17.9731 29.1695 17.8479C29.1529 17.8452 29.1362 17.8425 29.1191 17.8397C28.6575 17.7683 28.1818 17.7736 27.7211 17.8479C27.7049 17.8504 27.6888 17.8529 27.6722 17.8555C27.062 17.9554 26.4593 18.2019 25.9527 18.5552C25.9324 18.5693 25.9324 18.5693 25.9118 18.5836C25.7527 18.6953 25.6021 18.8121 25.4619 18.9469C25.4167 18.9903 25.3703 19.0318 25.3232 19.0731C25.2516 19.1375 25.1891 19.2056 25.1274 19.2794C25.1138 19.295 25.1001 19.3105 25.0861 19.3265C24.978 19.4502 24.8812 19.58 24.7876 19.715C24.7801 19.7256 24.7727 19.7361 24.765 19.747C24.7394 19.7842 24.7394 19.7842 24.7194 19.824C24.6619 19.9277 24.6619 19.9277 24.6018 19.9502C24.5556 19.9554 24.5115 19.9558 24.4651 19.9545C24.4476 19.9546 24.4301 19.9548 24.4121 19.9549C24.3535 19.9552 24.295 19.9543 24.2364 19.9535C24.1944 19.9534 24.1524 19.9535 24.1104 19.9536C24.02 19.9536 23.9296 19.9532 23.8392 19.9523C23.7085 19.9511 23.5778 19.9507 23.4471 19.9505C23.235 19.9502 23.0229 19.9492 22.8108 19.9477C22.6049 19.9463 22.3989 19.9453 22.1929 19.9446C22.1802 19.9446 22.1675 19.9445 22.1544 19.9445C22.0907 19.9443 22.027 19.9441 21.9633 19.9439C21.4348 19.9423 20.9064 19.9397 20.3779 19.9363C20.3831 19.9096 20.3883 19.8829 20.3936 19.8563C20.3965 19.8414 20.3994 19.8266 20.4024 19.8113C20.4151 19.7513 20.4328 19.6936 20.452 19.6354C20.4578 19.6175 20.4578 19.6175 20.4638 19.5992C20.4764 19.5606 20.4892 19.5221 20.5021 19.4837C20.5066 19.4703 20.511 19.457 20.5156 19.4433C20.6019 19.1858 20.7023 18.9368 20.8158 18.69C20.8282 18.6629 20.8282 18.6629 20.8408 18.6352C21.0731 18.1293 21.3576 17.6532 21.6916 17.2079C21.6993 17.1976 21.7071 17.1872 21.715 17.1766C21.8452 17.0039 21.9821 16.837 22.1232 16.6731C22.1365 16.6576 22.1365 16.6576 22.1501 16.6418C22.2051 16.5782 22.2626 16.5182 22.3224 16.4591C22.3516 16.4299 22.3787 16.3995 22.4053 16.3679C22.5005 16.2578 22.6039 16.1571 22.7144 16.0625C22.7531 16.0285 22.7906 15.9934 22.8281 15.9581C22.9305 15.8619 23.0364 15.7732 23.1478 15.6878C23.1862 15.6583 23.2237 15.6282 23.2607 15.5969C23.4041 15.4764 23.557 15.3716 23.7127 15.2679C23.7232 15.2608 23.7338 15.2537 23.7447 15.2464C25.0154 14.3995 26.5553 13.8589 28.0935 13.8529Z" fill="#FF4E4E"/>
<path d="M19.578 15.3177C19.6031 15.3799 20.6507 15.9631 20.5789 16.0445C20.4704 16.1683 20.3697 16.2971 20.2712 16.4291C20.2429 16.4669 20.2144 16.5046 20.1858 16.5422C19.9734 16.8245 19.7795 17.1205 19.6031 17.4266C19.5907 17.4479 19.5907 17.4479 19.578 17.4697C19.3194 17.9154 19.1068 18.3752 18.9178 18.8541C18.8897 18.9237 18.8596 18.992 18.8284 19.0603C18.8173 19.0603 18.8062 19.0603 18.7947 19.0603C18.7741 19.0386 18.7741 19.0386 18.7505 19.0087C18.7042 18.953 18.6551 18.906 18.5999 18.8592C18.5689 18.8329 18.5383 18.8063 18.508 18.7792C18.2853 18.5823 18.0433 18.4141 17.7842 18.2687C17.7721 18.2619 17.76 18.255 17.7475 18.248C17.5471 18.1363 17.3426 18.0448 17.1274 17.9655C17.1151 17.9609 17.1028 17.9563 17.0901 17.9516C16.3998 17.6963 15.5949 17.6234 14.8705 17.7634C14.8557 17.766 14.8408 17.7687 14.8255 17.7714C14.1462 17.8922 13.4941 18.1813 12.9505 18.6055C12.9354 18.617 12.9203 18.6286 12.9048 18.6405C12.6142 18.8668 12.3423 19.133 12.1252 19.4308C12.113 19.4473 12.113 19.4473 12.1005 19.4643C11.8144 19.8532 11.5817 20.2834 11.4347 20.7445C11.4303 20.7582 11.426 20.7719 11.4215 20.786C11.0673 21.9241 11.2085 23.1555 11.7601 24.2056C11.9227 24.5052 12.1292 24.7822 12.3589 25.0333C12.3893 25.0669 12.4184 25.1012 12.4474 25.1361C12.7562 25.4882 13.1609 25.7659 13.5737 25.9824C13.5874 25.9896 13.6011 25.9968 13.6152 26.0043C14.6415 26.5384 15.8608 26.6293 16.9624 26.2847C17.2177 26.2009 17.4631 26.092 17.7 25.9655C17.7109 25.9598 17.7217 25.9541 17.733 25.9482C18.0045 25.8047 18.2523 25.6259 18.4844 25.4251C18.495 25.416 18.5056 25.4069 18.5165 25.3974C18.5373 25.3794 18.5581 25.3612 18.5788 25.343C18.5884 25.3347 18.5979 25.3263 18.6078 25.3178C18.6162 25.3103 18.6247 25.3029 18.6334 25.2952C18.6631 25.2727 18.6936 25.2571 18.7274 25.2413C18.7325 25.2564 18.7377 25.2714 18.743 25.2869C18.9064 25.7629 19.092 26.222 19.3168 26.6729C19.3261 26.6915 19.3354 26.7101 19.3449 26.7293C19.6584 27.3548 20.0443 27.9425 20.4931 28.4795C20.5019 28.4899 20.5106 28.5004 20.5196 28.5112C20.5381 28.5328 20.557 28.554 20.5762 28.5749C20.5856 28.5853 20.595 28.5956 20.6047 28.6063C20.6133 28.6155 20.6219 28.6247 20.6307 28.6341C20.6362 28.6428 20.6417 28.6514 20.6474 28.6603C20.6289 28.7156 20.6199 28.7235 20.5749 28.7567C20.5628 28.7656 20.5508 28.7745 20.5384 28.7837C20.525 28.7933 20.5117 28.803 20.4979 28.8129C20.4839 28.8231 20.4699 28.8333 20.4554 28.8438C20.039 29.1439 19.6067 29.4057 19.1484 29.6371C19.1326 29.6451 19.1168 29.6531 19.1005 29.6613C18.8476 29.7883 18.5894 29.8952 18.3231 29.9908C18.3034 29.9979 18.2836 30.005 18.2632 30.0123C17.6663 30.2241 17.0505 30.3642 16.421 30.434C16.4025 30.436 16.4025 30.436 16.3835 30.4381C16.0912 30.47 15.8004 30.4827 15.5063 30.4824C15.4909 30.4824 15.4755 30.4824 15.4596 30.4823C13.9525 30.4797 12.4691 30.0689 11.1821 29.2834C11.1693 29.2757 11.1565 29.268 11.1433 29.26C10.6854 28.984 10.2623 28.6504 9.8684 28.2897C9.85591 28.2784 9.85591 28.2784 9.84316 28.2668C9.67473 28.1137 9.50668 27.9587 9.35906 27.7851C9.32352 27.7439 9.28646 27.7043 9.24946 27.6645C9.16141 27.5678 9.08111 27.4663 9.00137 27.3627C8.97452 27.3281 8.94726 27.2939 8.91992 27.2597C8.57741 26.8297 8.2948 26.3558 8.04946 25.8645C8.04165 25.849 8.03384 25.8335 8.0258 25.8176C7.35201 24.4754 7.09881 22.9392 7.58834 19.6345C7.97051 18.4827 8.58588 17.3379 9.46386 16.4837C9.49722 16.4504 9.52819 16.416 9.55893 16.3803C9.64215 16.2836 9.73217 16.1973 9.82873 16.1141C9.86867 16.079 9.90762 16.0429 9.9465 16.0066C10.0518 15.9083 10.1595 15.8149 10.2726 15.7255C10.2891 15.7124 10.2891 15.7124 10.3058 15.6991C10.4808 15.56 10.659 15.428 10.8452 15.3045C10.8561 15.2972 10.867 15.2899 10.8783 15.2823C12.8066 14.1774 16.6998 13.6723 19.578 15.3177Z" fill="#FF4E4E"/>
<path d="M16.5425 20.9559C16.7807 21.1568 16.9648 21.3952 17.0767 21.6877C17.0767 21.6988 17.0767 21.7099 17.0767 21.7214C20.2669 21.7214 23.4572 21.7214 26.7441 21.7214C26.7691 21.6463 26.7691 21.6463 26.7946 21.5698C26.9712 21.1775 27.3228 20.8536 27.7219 20.6973C27.931 20.6226 28.1346 20.5865 28.3567 20.5877C28.3856 20.5878 28.3856 20.5878 28.4151 20.588C28.876 20.5946 29.2731 20.7874 29.603 21.1035C29.9216 21.434 30.0865 21.8776 30.0839 22.3345C30.0713 22.8387 29.8579 23.2593 29.4975 23.6058C29.1772 23.9008 28.7263 24.0391 28.2968 24.0284C27.8191 24.0064 27.4004 23.801 27.0687 23.4593C26.9475 23.321 26.8228 23.148 26.7778 22.9677C23.5653 22.9677 20.3528 22.9677 17.043 22.9677C17.0263 23.0177 17.0263 23.0177 17.0093 23.0687C16.8153 23.4708 16.4677 23.7788 16.0478 23.9294C15.6224 24.0736 15.1466 24.0656 14.7373 23.8732C14.5815 23.7962 14.4417 23.7105 14.3146 23.5909C14.3065 23.5835 14.2984 23.5762 14.2901 23.5687C13.9502 23.2595 13.7653 22.8405 13.7382 22.382C13.7278 21.9276 13.8704 21.4866 14.1798 21.1487C14.1928 21.1344 14.2058 21.12 14.2192 21.1053C14.8206 20.4717 15.8647 20.4081 16.5425 20.9559Z" fill="#FF4E4E"/>
</svg>
