<svg width="227" height="31" viewBox="0 0 227 31" fill="none" xmlns="http://www.w3.org/2000/svg">
<path d="M37.7297 0.00146228C37.7665 0.00124619 37.8032 0.0010301 37.8411 0.000807461C37.959 0.000271518 38.077 7.33004e-05 38.1949 2.74742e-05C38.2252 1.39493e-05 38.2252 1.39493e-05 38.256 1.51358e-07C38.8904 -4.56628e-05 39.5153 0.0102587 40.1444 0.0995071C40.1659 0.102551 40.1874 0.105596 40.2096 0.108732C42.9081 0.493606 45.46 1.53296 47.6436 3.28285C47.6886 3.3189 47.6886 3.3189 47.7346 3.35567C47.8965 3.48665 48.0536 3.62177 48.2074 3.76232C48.2492 3.80019 48.2912 3.83792 48.3344 3.87433C48.5394 4.04845 48.7275 4.23969 48.9172 4.43005C48.9769 4.48986 49.0367 4.54951 49.0965 4.60915C49.2819 4.79441 49.4648 4.97958 49.6332 5.18062C49.6591 5.21013 49.685 5.23965 49.7116 5.27005C51.7074 7.58567 52.9282 10.5226 53.3063 14.6388C53.3069 14.6699 53.3076 14.701 53.3083 14.7331C53.3536 17.2605 52.7797 19.6953 51.6534 21.9544C51.6405 21.9804 51.6275 22.0064 51.6142 22.0332C51.3171 22.6253 50.9692 23.1923 50.5821 23.7297C50.565 23.7534 50.548 23.7771 50.5304 23.8015C50.3212 24.0907 50.1094 24.376 49.8781 24.648C49.8643 24.6644 49.8505 24.6807 49.8363 24.6975C49.7904 24.7519 49.7443 24.8062 49.6982 24.8604C49.6846 24.8764 49.671 24.8925 49.6569 24.9091C49.3889 25.2216 49.1051 25.5185 48.814 25.8095C48.7607 25.8629 48.7076 25.9166 48.6545 25.9702C48.4714 26.1542 48.2863 26.3277 48.0824 26.4886C48.0138 26.5435 47.949 26.6009 47.8846 26.6606C47.6728 26.8505 47.4429 27.0186 47.2151 27.1886C47.1926 27.2054 47.1701 27.2222 47.1469 27.2395C44.9333 28.8856 42.2719 29.8479 39.5322 30.0964C39.5027 30.0994 39.4732 30.1023 39.4429 30.1053C38.4189 30.1945 37.3366 30.1791 36.3182 30.0352C36.2967 30.0322 36.2751 30.0291 36.2529 30.026C33.2394 29.5964 30.5339 28.342 27.8941 26.0496C27.8379 25.9932 27.7794 25.9414 27.719 25.8896C27.5189 25.7169 27.3361 25.5287 27.1642 25.3281C27.1053 25.2607 27.0449 25.1949 26.984 25.1293C26.8124 24.9443 26.6495 24.7541 26.4927 24.5562C26.4773 24.5369 26.4619 24.5175 26.446 24.4976C25.8881 23.7972 25.3938 23.0583 24.9695 22.2694C24.9439 22.2221 24.9182 22.1748 24.8923 22.1277C24.4798 21.3782 24.1646 20.5903 23.8909 19.7812C23.8796 19.7498 23.8683 19.7185 23.8566 19.6862C23.8297 19.5975 23.8297 19.5975 23.8297 19.4751C24.8043 19.4674 25.7789 19.4614 26.7535 19.4579C26.8686 19.4575 26.9837 19.457 27.0987 19.4566C27.1331 19.4564 27.1331 19.4564 27.1682 19.4563C27.539 19.4548 27.9099 19.4522 28.2808 19.4491C28.6614 19.4459 29.042 19.4441 29.4226 19.4434C29.6574 19.4429 29.8922 19.4415 30.127 19.4387C30.3072 19.4367 30.4873 19.4365 30.6674 19.437C30.7413 19.4369 30.8151 19.4362 30.8889 19.4349C31.4476 19.4256 31.4476 19.4256 31.6092 19.5485C31.6727 19.6344 31.7156 19.7139 31.7575 19.8118C31.7835 19.8511 31.8104 19.8898 31.8387 19.9276C31.8617 19.9607 31.8848 19.9938 31.9086 20.0279C32.0396 20.2133 32.1842 20.3804 32.339 20.5464C32.3717 20.5845 32.4042 20.6228 32.4366 20.6612C32.704 20.9671 32.9976 21.2464 33.3185 21.4953C33.3478 21.519 33.3772 21.5427 33.4074 21.5671C35.098 22.9123 37.2823 23.4497 39.4097 23.2094C40.9777 23.011 42.4819 22.327 43.6644 21.281C43.7033 21.2472 43.7033 21.2472 43.743 21.2127C44.0712 20.9235 44.3753 20.6165 44.6439 20.2709C44.668 20.2408 44.6921 20.2108 44.717 20.1798C45.3574 19.3747 45.8243 18.441 46.1131 17.4549C46.1199 17.4319 46.1266 17.4089 46.1335 17.3852C46.7169 15.3423 46.4212 13.1069 45.3968 11.2554C45.0916 10.7244 44.7277 10.2387 44.315 9.78657C44.2682 9.73518 44.2219 9.68334 44.176 9.63113C44.0347 9.47068 43.8895 9.32738 43.7256 9.19041C43.6974 9.16563 43.6692 9.14085 43.6401 9.11532C42.5348 8.14877 41.1365 7.48957 39.6852 7.26204C39.655 7.25716 39.6247 7.25228 39.5935 7.24726C38.7546 7.1174 37.8902 7.12705 37.0528 7.26204C37.0235 7.26664 36.9941 7.27124 36.9639 7.27598C35.8551 7.45755 34.7596 7.90546 33.8389 8.54762C33.8021 8.57319 33.8021 8.57319 33.7646 8.59927C33.4754 8.80217 33.2017 9.01445 32.947 9.2594C32.8648 9.33826 32.7805 9.41374 32.6949 9.48885C32.5647 9.60586 32.4512 9.7297 32.339 9.86381C32.3143 9.89202 32.2895 9.92023 32.264 9.9493C32.0674 10.1742 31.8916 10.41 31.7215 10.6553C31.7079 10.6746 31.6944 10.6938 31.6804 10.7136C31.634 10.7812 31.634 10.7812 31.5975 10.8536C31.4931 11.042 31.4931 11.042 31.3838 11.0828C31.2998 11.0924 31.2198 11.093 31.1353 11.0907C31.1035 11.0909 31.0717 11.0912 31.039 11.0914C30.9325 11.0919 30.8261 11.0903 30.7196 11.0888C30.6433 11.0888 30.567 11.0888 30.4907 11.089C30.3264 11.089 30.1621 11.0882 29.9978 11.0867C29.7602 11.0845 29.5227 11.0837 29.2851 11.0834C28.8997 11.0828 28.5143 11.081 28.1289 11.0783C27.7545 11.0758 27.3802 11.0739 27.0058 11.0727C26.9827 11.0726 26.9597 11.0726 26.9359 11.0725C26.8201 11.0721 26.7043 11.0718 26.5885 11.0714C25.6281 11.0686 24.6677 11.0637 23.7073 11.0576C23.7167 11.0091 23.7262 10.9606 23.7357 10.9122C23.741 10.8852 23.7463 10.8582 23.7517 10.8304C23.7749 10.7213 23.8069 10.6165 23.8419 10.5107C23.8525 10.4781 23.8525 10.4781 23.8633 10.4449C23.8863 10.3748 23.9096 10.3049 23.933 10.2349C23.9411 10.2107 23.9492 10.1865 23.9575 10.1616C24.1144 9.69357 24.2967 9.24116 24.5031 8.79249C24.5256 8.74323 24.5256 8.74323 24.5485 8.69298C24.9707 7.77346 25.4878 6.90832 26.0948 6.09889C26.1088 6.08016 26.1229 6.06143 26.1374 6.04213C26.3739 5.72817 26.6227 5.4249 26.8791 5.12705C26.9033 5.09886 26.9033 5.09886 26.928 5.07009C27.028 4.9546 27.1325 4.84547 27.2413 4.73816C27.2943 4.68508 27.3436 4.62973 27.3918 4.57226C27.5648 4.37224 27.7528 4.18918 27.9536 4.01735C28.0239 3.95556 28.0922 3.89174 28.1603 3.82752C28.3463 3.6528 28.5388 3.4916 28.7413 3.3363C28.8111 3.2827 28.8793 3.22791 28.9465 3.17106C29.2072 2.95209 29.4849 2.7617 29.7679 2.57311C29.7871 2.56026 29.8063 2.54741 29.8261 2.53418C32.1355 0.994947 34.934 0.0125112 37.7297 0.00146228Z" fill="#FF4E4E"/>
<path d="M22.2536 2.66415C22.2993 2.77718 24.203 3.83709 24.0727 3.98502C23.8753 4.21016 23.6924 4.44417 23.5133 4.68403C23.4619 4.7528 23.4101 4.82123 23.3583 4.88966C22.9722 5.40261 22.6198 5.94067 22.2993 6.49688C22.2766 6.53572 22.2766 6.53572 22.2536 6.57534C21.7835 7.38529 21.3972 8.22101 21.0537 9.09121C21.0027 9.21769 20.9479 9.34191 20.8912 9.46596C20.871 9.46596 20.8508 9.46596 20.83 9.46596C20.7925 9.42662 20.7925 9.42662 20.7497 9.37222C20.6654 9.27105 20.5763 9.18555 20.476 9.10056C20.4196 9.05274 20.3641 9.00435 20.3088 8.95517C19.9041 8.59737 19.4644 8.29166 18.9935 8.02733C18.9715 8.01495 18.9495 8.00256 18.9268 7.9898C18.5626 7.78683 18.1908 7.62037 17.7997 7.47637C17.7774 7.46801 17.755 7.45966 17.732 7.45105C16.4774 6.98707 15.0147 6.85466 13.6981 7.10906C13.6711 7.11382 13.6441 7.11859 13.6162 7.1235C12.3816 7.34303 11.1966 7.86856 10.2087 8.63951C10.1812 8.66047 10.1538 8.68142 10.1256 8.70301C9.5974 9.11436 9.10334 9.59816 8.70882 10.1394C8.68659 10.1695 8.68659 10.1695 8.66391 10.2002C8.14388 10.907 7.72089 11.6888 7.45385 12.5269C7.4459 12.5518 7.43795 12.5767 7.42975 12.6023C6.78612 14.6707 7.04268 16.9086 8.04512 18.8173C8.34069 19.3616 8.71596 19.8652 9.1334 20.3214C9.18872 20.3825 9.24153 20.4449 9.29422 20.5082C9.85561 21.1481 10.5911 21.6528 11.3412 22.0463C11.3661 22.0595 11.391 22.0726 11.4167 22.0861C13.2818 23.0568 15.4979 23.222 17.5 22.5957C17.9639 22.4435 18.41 22.2455 18.8404 22.0157C18.8602 22.0053 18.88 21.9949 18.9004 21.9842C19.3938 21.7233 19.8443 21.3985 20.266 21.0336C20.2853 21.017 20.3045 21.0004 20.3243 20.9832C20.3622 20.9504 20.4 20.9174 20.4376 20.8842C20.455 20.8691 20.4723 20.854 20.4902 20.8385C20.5056 20.8249 20.5209 20.8114 20.5368 20.7975C20.5908 20.7565 20.6462 20.7281 20.7076 20.6995C20.717 20.7269 20.7263 20.7542 20.736 20.7824C21.0329 21.6475 21.3703 22.4819 21.7789 23.3013C21.7958 23.3351 21.8126 23.3689 21.83 23.4038C22.3998 24.5406 23.1009 25.6087 23.9168 26.5846C23.9326 26.6036 23.9485 26.6226 23.9648 26.6422C23.9984 26.6814 24.0327 26.72 24.0677 26.758C24.0848 26.7769 24.1019 26.7957 24.1195 26.8151C24.1352 26.8318 24.1508 26.8485 24.1668 26.8657C24.1768 26.8813 24.1868 26.897 24.197 26.9132C24.1635 27.0137 24.1471 27.028 24.0653 27.0883C24.0434 27.1045 24.0215 27.1207 23.999 27.1374C23.9747 27.155 23.9504 27.1725 23.9254 27.1906C23.8999 27.2091 23.8744 27.2276 23.8482 27.2467C23.0913 27.7922 22.3057 28.2679 21.4728 28.6885C21.4441 28.703 21.4154 28.7176 21.3858 28.7325C20.9261 28.9632 20.4569 29.1575 19.973 29.3313C19.937 29.3442 19.9011 29.3571 19.864 29.3704C18.7792 29.7553 17.66 30.0099 16.5161 30.1367C16.4823 30.1404 16.4823 30.1404 16.4479 30.1442C15.9165 30.2022 15.3881 30.2253 14.8536 30.2247C14.8256 30.2247 14.7976 30.2246 14.7687 30.2246C12.0297 30.2198 9.33367 29.4732 6.99471 28.0457C6.97142 28.0317 6.94813 28.0176 6.92414 28.0032C6.092 27.5015 5.32316 26.8952 4.6072 26.2398C4.58449 26.2191 4.58449 26.2191 4.56132 26.1981C4.25522 25.9198 3.94979 25.6381 3.68151 25.3226C3.61691 25.2478 3.54957 25.1758 3.48232 25.1034C3.3223 24.9277 3.17635 24.7432 3.03144 24.5549C2.98265 24.4921 2.93311 24.4299 2.88341 24.3678C2.26092 23.5862 1.74732 22.7249 1.30142 21.8321C1.28723 21.8039 1.27304 21.7758 1.25842 21.7468C0.033866 19.3075 -0.426305 16.5156 0.463373 10.5097C1.15793 8.41623 2.27632 6.33578 3.87198 4.78324C3.93261 4.72274 3.9889 4.66019 4.04476 4.59528C4.196 4.4197 4.3596 4.2627 4.5351 4.11164C4.60769 4.04772 4.67847 3.9822 4.74913 3.91618C4.94052 3.73756 5.13629 3.56772 5.34182 3.40536C5.37171 3.38156 5.37171 3.38156 5.4022 3.35729C5.72026 3.10446 6.04396 2.86473 6.38253 2.64013C6.40233 2.62686 6.42213 2.61359 6.44254 2.59992C9.94703 0.59177 17.0227 -0.326173 22.2536 2.66415Z" fill="#FF4E4E"/>
<path d="M16.7369 12.9108C17.1698 13.2758 17.5044 13.7091 17.7078 14.2408C17.7078 14.261 17.7078 14.2812 17.7078 14.302C23.5058 14.302 29.3037 14.302 35.2774 14.302C35.3229 14.1656 35.3229 14.1656 35.3692 14.0265C35.6902 13.3135 36.3293 12.7248 37.0546 12.4407C37.4346 12.3051 37.8045 12.2395 38.2082 12.2416C38.2608 12.2419 38.2608 12.2419 38.3144 12.2421C39.152 12.2541 39.8738 12.6046 40.4733 13.179C41.0522 13.7798 41.3519 14.5858 41.3472 15.4162C41.3244 16.3326 40.9365 17.097 40.2815 17.7267C39.6994 18.263 38.88 18.5143 38.0993 18.4948C37.2311 18.4548 36.4702 18.0815 35.8674 17.4606C35.647 17.2092 35.4205 16.8947 35.3386 16.5671C29.5003 16.5671 23.6619 16.5671 17.6466 16.5671C17.6163 16.658 17.6163 16.658 17.5854 16.7507C17.2327 17.4814 16.601 18.0412 15.8378 18.3149C15.0647 18.5769 14.2 18.5624 13.4561 18.2128C13.1729 18.0728 12.9189 17.9171 12.6879 17.6996C12.6732 17.6863 12.6585 17.673 12.6434 17.6592C12.0256 17.0974 11.6895 16.3359 11.6404 15.5027C11.6214 14.6768 11.8807 13.8753 12.443 13.2613C12.4666 13.2352 12.4902 13.2091 12.5145 13.1822C13.6076 12.0308 15.5052 11.9153 16.7369 12.9108Z" fill="#FF4E4E"/>
<path d="M207.502 5.85596C208.593 5.85596 209.684 5.85596 210.808 5.85596C210.959 6.09838 210.959 6.09838 211.114 6.3457C211.191 6.46765 211.269 6.58948 211.347 6.7111C211.39 6.77738 211.432 6.84366 211.475 6.90994C211.496 6.94324 211.517 6.97653 211.539 7.01084C211.643 7.17167 211.745 7.33261 211.848 7.49354C211.889 7.55699 211.93 7.62044 211.97 7.68389C212.054 7.8146 212.138 7.94533 212.221 8.07607C212.487 8.49228 212.487 8.49228 212.755 8.9073C212.898 9.12691 213.038 9.34766 213.179 9.56861C213.377 9.88062 213.576 10.1919 213.776 10.5032C213.858 10.6313 213.94 10.7595 214.022 10.8876C214.062 10.9511 214.103 11.0146 214.144 11.0781C214.248 11.2405 214.352 11.403 214.456 11.5655C214.722 11.9817 214.722 11.9817 214.99 12.3967C215.132 12.6164 215.273 12.8371 215.413 13.058C215.612 13.3701 215.811 13.6814 216.01 13.9927C216.092 14.1208 216.174 14.2489 216.256 14.3771C216.297 14.4404 216.337 14.5037 216.378 14.567C216.473 14.715 216.567 14.863 216.662 15.011C216.695 15.0632 216.728 15.1153 216.762 15.1674C216.803 15.2326 216.845 15.2977 216.887 15.3629C216.99 15.5243 217.094 15.6843 217.203 15.8419C217.236 15.8957 217.236 15.8957 217.236 15.957C217.256 15.957 217.276 15.957 217.297 15.957C217.305 15.935 217.313 15.913 217.321 15.8904C217.359 15.8015 217.404 15.7262 217.456 15.6453C217.476 15.6147 217.496 15.5841 217.516 15.5526C217.548 15.5037 217.548 15.5037 217.58 15.4538C217.602 15.4195 217.624 15.3851 217.646 15.3508C217.692 15.2806 217.737 15.2104 217.782 15.1403C217.878 14.9927 217.972 14.8445 218.066 14.6962C218.101 14.6408 218.136 14.5854 218.172 14.5301C218.207 14.4751 218.241 14.4202 218.276 14.3653C218.521 13.9805 218.766 13.596 219.012 13.2121C219.216 12.8929 219.42 12.5731 219.623 12.2533C219.868 11.8685 220.113 11.484 220.359 11.1C220.563 10.7808 220.767 10.4611 220.97 10.1412C221.215 9.75636 221.46 9.37183 221.706 8.98779C221.838 8.78072 221.971 8.57341 222.102 8.3659C222.255 8.12585 222.408 7.88612 222.562 7.64659C222.751 7.35075 222.94 7.05457 223.128 6.75809C223.204 6.63901 223.28 6.52001 223.356 6.40106C223.376 6.37004 223.395 6.33901 223.416 6.30705C223.454 6.24725 223.492 6.18747 223.53 6.12771C223.547 6.101 223.564 6.0743 223.582 6.04679C223.597 6.02318 223.612 5.99958 223.628 5.97525C223.664 5.91767 223.664 5.91767 223.694 5.85596C224.785 5.85596 225.876 5.85596 227 5.85596C227 11.9671 227 18.0782 227 24.3745C225.98 24.3745 224.96 24.3745 223.908 24.3745C223.898 20.2432 223.888 16.1118 223.878 11.8553C223.686 12.1382 223.494 12.421 223.296 12.7124C223.102 12.9988 222.907 13.2851 222.712 13.5714C222.463 13.9379 222.214 14.3045 221.965 14.6714C221.673 15.1008 221.382 15.5299 221.09 15.9589C220.84 16.3254 220.591 16.6921 220.342 17.0589C220.051 17.4883 219.759 17.9174 219.468 18.3464C219.425 18.4092 219.382 18.4721 219.339 18.5349C219.297 18.5976 219.254 18.6604 219.211 18.7231C219.105 18.8791 218.999 19.0352 218.894 19.1916C218.84 19.2702 218.787 19.3487 218.734 19.4273C218.709 19.4651 218.683 19.503 218.657 19.5409C218.622 19.5938 218.586 19.6466 218.55 19.6994C218.53 19.7296 218.509 19.7599 218.488 19.791C218.469 19.8187 218.449 19.8464 218.429 19.8749C218.412 19.9014 218.395 19.928 218.377 19.9553C218.284 20.0512 218.235 20.0482 218.103 20.0507C218.083 20.0513 218.063 20.0518 218.042 20.0524C217.975 20.054 217.908 20.0545 217.842 20.0548C217.795 20.0553 217.748 20.0559 217.702 20.0565C217.604 20.0576 217.507 20.058 217.409 20.058C217.284 20.0582 217.16 20.0606 217.035 20.0636C216.939 20.0655 216.842 20.0659 216.746 20.0659C216.7 20.0661 216.654 20.0669 216.608 20.0682C216.251 20.0779 216.251 20.0779 216.115 19.9559C216.052 19.8703 216 19.7847 215.95 19.6913C215.915 19.6387 215.879 19.5865 215.842 19.5348C215.806 19.4817 215.77 19.4287 215.734 19.3756C215.694 19.3165 215.654 19.2575 215.613 19.1984C215.583 19.1536 215.583 19.1536 215.552 19.1079C215.454 18.9636 215.356 18.8195 215.258 18.6754C215.238 18.6474 215.219 18.6195 215.2 18.5906C215.061 18.3878 214.923 18.1853 214.784 17.9828C214.638 17.7688 214.492 17.5545 214.346 17.3402C214.223 17.1596 214.099 16.9791 213.976 16.7987C213.813 16.5611 213.651 16.3232 213.489 16.0853C213.366 15.9046 213.242 15.7241 213.119 15.5437C212.956 15.3061 212.794 15.0682 212.632 14.8303C212.508 14.6496 212.385 14.4691 212.262 14.2888C212.022 13.939 211.784 13.5888 211.545 13.2385C211.411 13.0427 211.278 12.8469 211.144 12.6512C211.126 12.6239 211.107 12.5967 211.088 12.5686C211.034 12.4896 210.98 12.4107 210.926 12.3317C210.91 12.3083 210.894 12.285 210.878 12.2609C210.863 12.2389 210.848 12.2168 210.832 12.1941C210.819 12.1751 210.806 12.1562 210.793 12.1366C210.727 12.0422 210.66 11.9489 210.593 11.8553C210.583 15.9867 210.573 20.118 210.563 24.3745C209.553 24.3745 208.543 24.3745 207.502 24.3745C207.502 18.2634 207.502 12.1522 207.502 5.85596Z" fill="#FF4E4E"/>
<path d="M103.737 5.85596C104.828 5.85596 105.919 5.85596 107.043 5.85596C107.154 6.03778 107.265 6.21959 107.38 6.40692C107.442 6.50495 107.505 6.60256 107.569 6.69962C107.603 6.75118 107.636 6.80275 107.67 6.85434C107.687 6.88096 107.705 6.90759 107.723 6.93502C107.822 7.08688 107.919 7.23952 108.017 7.39215C108.037 7.42429 108.058 7.45643 108.079 7.48955C108.121 7.5551 108.163 7.62065 108.205 7.68621C108.307 7.84651 108.41 8.00673 108.512 8.16694C108.553 8.23071 108.594 8.29448 108.635 8.35825C108.665 8.4056 108.665 8.4056 108.696 8.4539C109.859 10.2713 109.859 10.2713 109.92 10.367C109.961 10.4306 110.002 10.4942 110.042 10.5577C110.146 10.7202 110.25 10.8827 110.354 11.0452C110.62 11.4614 110.62 11.4614 110.888 11.8764C111.031 12.096 111.171 12.3167 111.312 12.5377C111.51 12.8497 111.709 13.161 111.909 13.4723C111.991 13.6004 112.073 13.7285 112.155 13.8567C112.195 13.9202 112.236 13.9837 112.277 14.0472C112.381 14.2096 112.485 14.3721 112.588 14.5346C112.771 14.8203 112.954 15.1059 113.138 15.3907C113.151 15.4115 113.165 15.4324 113.179 15.4538C113.265 15.5865 113.352 15.718 113.442 15.8478C113.471 15.8957 113.471 15.8957 113.471 15.957C113.491 15.957 113.511 15.957 113.532 15.957C113.539 15.9369 113.546 15.9169 113.553 15.8962C113.607 15.773 113.677 15.6643 113.75 15.5514C113.766 15.5262 113.782 15.5011 113.799 15.4752C113.852 15.3908 113.906 15.3066 113.961 15.2223C114 15.1608 114.039 15.0992 114.079 15.0376C114.161 14.9081 114.244 14.7786 114.327 14.6491C114.441 14.4712 114.555 14.293 114.668 14.1147C114.695 14.0735 114.695 14.0735 114.721 14.0314C114.774 13.9488 114.826 13.8663 114.879 13.7837C115.123 13.3989 115.369 13.0145 115.614 12.6305C115.819 12.3113 116.022 11.9915 116.226 11.6717C116.47 11.2869 116.715 10.9024 116.961 10.5184C117.166 10.1993 117.369 9.87951 117.572 9.55966C117.817 9.17478 118.062 8.79026 118.308 8.40622C118.441 8.19914 118.573 7.99184 118.705 7.78433C118.858 7.54428 119.011 7.30455 119.164 7.06502C119.326 6.81266 119.487 6.56019 119.648 6.30744C119.666 6.27956 119.684 6.25169 119.702 6.22297C119.718 6.19702 119.735 6.17108 119.752 6.14435C119.766 6.12181 119.781 6.09927 119.795 6.07605C119.841 6.00328 119.885 5.92958 119.929 5.85596C121.01 5.85596 122.091 5.85596 123.204 5.85596C123.204 11.9671 123.204 18.0782 123.204 24.3745C122.194 24.3745 121.184 24.3745 120.144 24.3745C120.133 20.2432 120.123 16.1118 120.113 11.8553C119.787 12.3313 119.787 12.3313 119.462 12.808C119.418 12.8736 119.373 12.9392 119.329 13.0047C119.307 13.0375 119.284 13.0702 119.261 13.1039C119.196 13.1996 119.131 13.2953 119.066 13.3909C118.838 13.7258 118.611 14.0608 118.384 14.3959C118.092 14.8253 117.8 15.2544 117.509 15.6834C117.259 16.0499 117.01 16.4166 116.761 16.7834C116.47 17.2128 116.178 17.6419 115.886 18.0709C115.844 18.1337 115.801 18.1965 115.758 18.2593C115.715 18.3223 115.672 18.3853 115.63 18.4483C115.525 18.6017 115.421 18.7552 115.317 18.909C115.266 18.9849 115.214 19.0608 115.163 19.1367C115.139 19.1727 115.114 19.2086 115.09 19.2446C115.034 19.327 114.979 19.4091 114.922 19.4906C114.872 19.5623 114.827 19.6351 114.785 19.7111C114.691 19.8698 114.613 20.0021 114.435 20.0674C114.307 20.0821 114.186 20.0837 114.058 20.0795C114.011 20.0794 113.965 20.0795 113.919 20.0796C113.822 20.0796 113.725 20.0781 113.628 20.0754C113.505 20.0721 113.382 20.072 113.258 20.0728C113.162 20.0732 113.067 20.0722 112.971 20.0708C112.926 20.0702 112.88 20.07 112.834 20.0702C112.482 20.0701 112.482 20.0701 112.356 19.9676C112.301 19.8982 112.258 19.8301 112.216 19.7525C112.192 19.7166 112.167 19.6809 112.142 19.6456C112.119 19.6111 112.097 19.5766 112.074 19.5421C112.048 19.502 112.021 19.4619 111.995 19.4219C111.981 19.401 111.967 19.3801 111.953 19.3586C111.877 19.2436 111.798 19.1298 111.72 19.016C111.686 18.9664 111.652 18.9168 111.618 18.8672C111.601 18.8419 111.584 18.8165 111.566 18.7904C111.472 18.654 111.379 18.5174 111.286 18.3808C111.267 18.3528 111.248 18.3247 111.228 18.2958C111.15 18.1813 111.072 18.0668 110.994 17.9523C110.778 17.6358 110.562 17.3193 110.346 17.0033C110.2 16.7893 110.053 16.575 109.907 16.3607C109.784 16.1801 109.661 15.9996 109.537 15.8192C109.298 15.4695 109.059 15.1192 108.821 14.769C108.621 14.4761 108.422 14.1833 108.221 13.8908C108.08 13.6837 107.938 13.4765 107.797 13.2691C107.778 13.2412 107.759 13.2132 107.739 13.1845C107.64 13.0391 107.541 12.8937 107.442 12.7483C107.422 12.7189 107.402 12.6895 107.381 12.6592C107.343 12.6039 107.306 12.5487 107.268 12.4934C107.123 12.28 106.976 12.0677 106.829 11.8553C106.818 15.9867 106.808 20.118 106.798 24.3745C105.788 24.3745 104.778 24.3745 103.737 24.3745C103.737 18.2634 103.737 12.1522 103.737 5.85596Z" fill="#FF4E4E"/>
<path d="M90.8737 5.6353C90.9242 5.63504 90.9242 5.63504 90.9756 5.63477C91.0467 5.63448 91.1177 5.63428 91.1887 5.63416C91.2945 5.63387 91.4003 5.63292 91.506 5.63195C92.1208 5.62902 92.7304 5.68109 93.3338 5.80222C93.3662 5.80862 93.3986 5.81501 93.4319 5.82161C93.7818 5.89349 94.1228 5.99059 94.4625 6.10065C94.4899 6.10943 94.5173 6.11821 94.5456 6.12726C95.9137 6.57281 97.1436 7.37354 98.1605 8.38295C98.1871 8.40934 98.2138 8.43573 98.2413 8.46293C98.423 8.64552 98.5881 8.83714 98.7478 9.03913C98.7627 9.05775 98.7777 9.07638 98.793 9.09557C99.7999 10.3558 100.44 11.8848 100.676 13.4774C100.683 13.5212 100.683 13.5212 100.69 13.5658C100.844 14.5786 100.841 15.6809 100.676 16.6914C100.671 16.7248 100.665 16.7582 100.66 16.7927C100.508 17.6957 100.248 18.5604 99.8497 19.385C99.8298 19.4264 99.8298 19.4264 99.8094 19.4686C99.451 20.2034 98.997 20.8881 98.4429 21.4902C98.3862 21.552 98.3315 21.615 98.2772 21.6788C98.0631 21.9234 97.8324 22.1451 97.5778 22.3472C97.5218 22.3921 97.4667 22.4381 97.4126 22.4854C96.5817 23.209 95.5573 23.709 94.5237 24.0682C94.4953 24.0781 94.4669 24.0879 94.4377 24.0981C92.0036 24.9271 89.2208 24.6787 86.926 23.5621C86.326 23.2637 85.7705 22.8969 85.2492 22.4765C85.233 22.4636 85.2169 22.4506 85.2003 22.4373C84.7371 22.0625 84.2927 21.6362 83.933 21.1603C83.9025 21.1218 83.872 21.0834 83.8414 21.045C83.4629 20.5654 83.1446 20.0484 82.8616 19.5074C82.8501 19.4854 82.8386 19.4633 82.8267 19.4406C82.3589 18.5334 82.0714 17.5185 81.9434 16.5077C81.9407 16.4872 81.9381 16.4666 81.9354 16.4454C81.8795 15.9963 81.8711 15.55 81.8726 15.0978C81.8726 15.062 81.8727 15.0262 81.8728 14.9893C81.8741 14.4695 81.886 13.9603 81.974 13.4468C81.9792 13.4144 81.9845 13.382 81.9899 13.3486C82.2746 11.6184 83.0429 9.95204 84.2481 8.66919C84.3116 8.60075 84.3728 8.53155 84.4336 8.46078C84.5415 8.33697 84.6565 8.22318 84.7766 8.11129C84.8085 8.08157 84.8085 8.08157 84.841 8.05124C85.0395 7.86821 85.2468 7.70033 85.4634 7.53928C85.4799 7.52689 85.4963 7.51449 85.5133 7.50172C87.035 6.35941 88.9617 5.64326 90.8737 5.6353ZM86.6738 10.2422C86.5354 10.3943 86.4107 10.5564 86.2899 10.7226C86.2771 10.7402 86.2642 10.7578 86.251 10.7759C85.8786 11.294 85.608 11.865 85.4022 12.4673C85.3937 12.4917 85.3853 12.5161 85.3765 12.5412C84.7347 14.4179 84.8627 16.7055 85.719 18.4918C86.4387 19.9477 87.6291 21.0555 89.1767 21.5831C89.5239 21.6963 89.879 21.7712 90.2384 21.8337C90.2611 21.8378 90.2838 21.8419 90.3072 21.846C91.8908 22.1157 93.6689 21.747 94.9828 20.8255C96.4158 19.7905 97.2563 18.215 97.5422 16.4911C97.8539 14.5076 97.5412 12.3633 96.3468 10.7137C96.1633 10.4663 95.9619 10.2399 95.7481 10.0186C95.7206 9.98873 95.7206 9.98873 95.6925 9.95824C94.6811 8.88599 93.0737 8.35653 91.6353 8.30726C91.5986 8.30635 91.5619 8.30544 91.524 8.30451C91.4933 8.30329 91.4625 8.30206 91.4309 8.3008C89.635 8.26047 87.9073 8.93268 86.6738 10.2422Z" fill="#FF4E4E"/>
<path d="M158.221 5.85596C165.594 5.85596 165.594 5.85596 166.317 5.98605C166.355 5.99266 166.393 5.99928 166.432 6.0061C166.764 6.06627 167.085 6.14597 167.404 6.25388C167.43 6.26266 167.456 6.27145 167.483 6.28051C168.28 6.55408 168.986 6.97231 169.608 7.53946C169.623 7.55348 169.639 7.5675 169.655 7.58195C170.549 8.40737 171.105 9.66407 171.172 10.8774C171.174 10.9429 171.176 11.0083 171.176 11.0739C171.177 11.098 171.177 11.1222 171.177 11.1471C171.183 11.689 171.177 12.2136 171.047 12.743C171.037 12.7822 171.037 12.7822 171.027 12.8223C170.683 14.1755 169.861 15.3369 168.66 16.0539C168.125 16.3649 167.543 16.5702 166.945 16.7222C167.116 17.0233 167.29 17.322 167.467 17.6194C167.493 17.6627 167.519 17.7059 167.544 17.7491C167.714 18.0346 167.885 18.3196 168.056 18.6042C168.225 18.885 168.392 19.1668 168.559 19.4486C168.737 19.7494 168.917 20.0496 169.097 20.3492C169.202 20.5242 169.307 20.6995 169.411 20.8751C169.423 20.8954 169.435 20.9157 169.447 20.9366C169.472 20.9781 169.496 21.0197 169.521 21.0613C169.533 21.082 169.545 21.1028 169.558 21.1242C169.57 21.1449 169.583 21.1657 169.595 21.187C169.778 21.4949 169.963 21.8012 170.149 22.1066C170.324 22.3944 170.496 22.6844 170.665 22.9756C170.788 23.1867 170.913 23.3969 171.04 23.6054C171.052 23.6251 171.064 23.6448 171.076 23.6651C171.134 23.7596 171.192 23.8541 171.25 23.9484C171.271 23.982 171.291 24.0156 171.312 24.0502C171.33 24.0797 171.349 24.1091 171.367 24.1395C171.414 24.2214 171.414 24.2214 171.475 24.3745C170.263 24.3745 169.051 24.3745 167.802 24.3745C167.661 24.1219 167.519 23.8694 167.373 23.6092C167.215 23.337 167.215 23.337 167.056 23.0651C166.937 22.8609 166.819 22.6555 166.702 22.4499C166.544 22.1727 166.385 21.8959 166.226 21.6196C166.066 21.3434 165.907 21.0666 165.749 20.7894C165.598 20.5245 165.446 20.2605 165.292 19.9974C165.138 19.7343 164.986 19.4702 164.835 19.2054C164.675 18.9257 164.515 18.6463 164.355 18.3674C164.338 18.3389 164.322 18.3105 164.305 18.2811C164.28 18.2374 164.28 18.2374 164.254 18.1929C164.227 18.1435 164.227 18.1435 164.199 18.0931C164.147 18.0015 164.086 17.9211 164.02 17.8382C163.589 17.2554 163.649 16.6363 163.671 15.9434C163.675 15.7858 163.677 15.6282 163.679 15.4706C163.684 15.1633 163.691 14.8561 163.7 14.5489C163.73 14.5481 163.759 14.5473 163.79 14.5465C163.901 14.5434 164.012 14.5403 164.123 14.5371C164.171 14.5358 164.219 14.5344 164.267 14.5331C165.331 14.504 166.385 14.4247 167.199 13.6569C167.789 13.033 168.036 12.1965 168.027 11.349C167.999 10.5017 167.746 9.72062 167.123 9.12539C165.669 7.88907 162.63 8.37705 161.282 8.3659C161.282 13.6487 161.282 18.9316 161.282 24.3745C160.272 24.3745 159.262 24.3745 158.221 24.3745C158.221 18.2634 158.221 12.1522 158.221 5.85596Z" fill="#FF4E4E"/>
<path d="M194.552 5.85209C194.578 5.85212 194.605 5.85215 194.632 5.85218C194.661 5.85214 194.691 5.85209 194.722 5.85205C194.755 5.85216 194.788 5.85227 194.822 5.85238C194.874 5.85238 194.874 5.85238 194.927 5.85237C195.043 5.85239 195.158 5.85263 195.273 5.85287C195.352 5.85293 195.432 5.85297 195.511 5.853C195.7 5.85311 195.888 5.85335 196.077 5.85365C196.291 5.854 196.506 5.85417 196.72 5.85432C197.161 5.85464 197.602 5.85518 198.044 5.85586C198.255 6.43003 198.464 7.00502 198.669 7.58145C198.696 7.65531 198.722 7.72918 198.748 7.80304C198.803 7.95561 198.857 8.10818 198.911 8.26075C199.041 8.62423 199.171 8.98763 199.301 9.35104C199.313 9.38647 199.326 9.42189 199.339 9.4584C199.536 10.0104 199.734 10.5622 199.932 11.114C200.132 11.6724 200.332 12.231 200.531 12.7898C200.717 13.31 200.903 13.83 201.089 14.3499C201.288 14.9039 201.486 15.458 201.684 16.0123C201.697 16.0478 201.71 16.0833 201.723 16.1199C201.825 16.4076 201.928 16.6954 202.031 16.9832C202.121 17.2348 202.21 17.4864 202.3 17.7379C202.313 17.7734 202.326 17.8089 202.339 17.8455C202.536 18.3974 202.733 18.9492 202.931 19.5009C203.119 20.0233 203.306 20.5459 203.492 21.0686C203.698 21.6446 203.904 22.2204 204.11 22.7961C204.122 22.8287 204.133 22.8614 204.145 22.895C204.168 22.9585 204.191 23.0221 204.214 23.0856C204.236 23.1469 204.258 23.2083 204.28 23.2696C204.339 23.4341 204.398 23.5984 204.458 23.7627C204.471 23.798 204.483 23.8332 204.497 23.8696C204.521 23.9377 204.546 24.0059 204.571 24.074C204.582 24.1044 204.593 24.1348 204.604 24.1662C204.614 24.1932 204.624 24.2201 204.634 24.2479C204.655 24.3131 204.655 24.3131 204.655 24.3744C203.585 24.3744 202.514 24.3744 201.411 24.3744C201.269 23.9602 201.128 23.5461 200.982 23.1194C200.907 22.9018 200.831 22.6843 200.755 22.467C200.738 22.419 200.721 22.3709 200.704 22.3228C200.695 22.2989 200.687 22.2749 200.678 22.2503C200.662 22.2033 200.645 22.1562 200.629 22.1092C200.584 21.9815 200.539 21.8539 200.493 21.7265C200.484 21.6985 200.474 21.6706 200.463 21.6418C200.444 21.5876 200.425 21.5335 200.405 21.4795C200.397 21.4551 200.388 21.4307 200.379 21.4056C200.371 21.3841 200.364 21.3626 200.356 21.3404C200.339 21.2828 200.339 21.2828 200.339 21.191C198.4 21.191 196.461 21.191 194.462 21.191C194.483 21.0232 194.508 20.8681 194.549 20.7058C194.555 20.6831 194.561 20.6605 194.566 20.6372C194.585 20.5633 194.604 20.4894 194.622 20.4155C194.635 20.3639 194.648 20.3122 194.661 20.2605C194.688 20.1527 194.715 20.0449 194.742 19.9371C194.777 19.7988 194.812 19.6605 194.846 19.5221C194.873 19.4157 194.9 19.3092 194.926 19.2028C194.939 19.1517 194.952 19.1007 194.965 19.0497C194.982 18.9786 195 18.9075 195.018 18.8365C195.024 18.8153 195.029 18.7942 195.034 18.7724C195.071 18.6269 195.071 18.6269 195.105 18.5586C196.519 18.5586 197.933 18.5586 199.39 18.5586C199.219 18.0738 199.047 17.5889 198.87 17.0894C198.697 16.5893 198.697 16.5893 198.612 16.3432C198.421 15.7848 198.226 15.2275 198.028 14.6713C197.842 14.1468 197.659 13.6213 197.477 13.0949C197.241 12.4087 197 11.7243 196.757 11.0405C196.649 10.7359 196.542 10.4309 196.435 10.1258C196.426 10.1012 196.418 10.0766 196.409 10.0512C196.362 9.91792 196.315 9.78466 196.268 9.65139C196.124 10.0291 195.989 10.41 195.856 10.7917C195.641 11.4042 195.424 12.0156 195.205 12.6262C195.031 13.11 194.859 13.5944 194.69 14.0801C194.471 14.7104 194.245 15.338 194.019 15.9654C193.886 16.3329 193.754 16.7006 193.623 17.0684C193.598 17.1363 193.574 17.2042 193.55 17.2721C193.501 17.4084 193.452 17.5447 193.403 17.681C193.294 17.9857 193.185 18.2904 193.075 18.5951C193.015 18.764 192.954 18.933 192.894 19.1019C192.869 19.1695 192.845 19.2371 192.821 19.3047C192.803 19.3549 192.803 19.3549 192.785 19.4061C191.894 21.8902 191.894 21.8902 191.004 24.3744C189.973 24.3744 188.943 24.3744 187.881 24.3744C187.95 24.0645 187.95 24.0645 187.993 23.9459C188.003 23.9189 188.013 23.8919 188.023 23.8641C188.038 23.8212 188.038 23.8212 188.054 23.7774C188.071 23.731 188.071 23.731 188.088 23.6836C188.125 23.5816 188.162 23.4796 188.199 23.3777C188.225 23.3052 188.251 23.2328 188.277 23.1603C188.325 23.0279 188.373 22.8955 188.421 22.7631C188.546 22.4178 188.669 22.072 188.792 21.7262C188.856 21.5468 188.92 21.3675 188.984 21.1881C188.997 21.1527 189.01 21.1173 189.023 21.0807C189.169 20.6707 189.316 20.2608 189.463 19.8509C189.651 19.3285 189.838 18.8059 190.024 18.2832C190.223 17.7269 190.422 17.1709 190.621 16.615C190.82 16.0609 191.018 15.5068 191.216 14.9525C191.229 14.917 191.241 14.8815 191.254 14.845C191.344 14.5932 191.434 14.3415 191.524 14.0897C191.627 13.8021 191.729 13.5145 191.832 13.2269C191.845 13.1914 191.857 13.1559 191.87 13.1194C192.067 12.5674 192.265 12.0156 192.463 11.464C192.65 10.9416 192.837 10.419 193.024 9.89626C193.283 9.17079 193.542 8.44549 193.803 7.72048C193.878 7.5093 193.954 7.29808 194.03 7.08683C194.081 6.94307 194.133 6.79933 194.184 6.65559C194.209 6.58705 194.233 6.5185 194.258 6.44993C194.292 6.35566 194.326 6.26143 194.359 6.16721C194.369 6.13905 194.379 6.11088 194.39 6.08187C194.404 6.04366 194.404 6.04366 194.418 6.00469C194.426 5.98246 194.434 5.96024 194.442 5.93733C194.47 5.86746 194.476 5.85697 194.552 5.85209Z" fill="#FF4E4E"/>
<path d="M70.7845 5.62974C70.8199 5.62987 70.8553 5.63001 70.8917 5.63014C71.4076 5.6324 71.9145 5.64526 72.424 5.73305C72.4732 5.74117 72.4732 5.74117 72.5233 5.74946C74.0956 6.01417 75.5872 6.62358 76.8318 7.63081C76.8483 7.64412 76.8648 7.65743 76.8818 7.67114C77.3221 8.02937 77.745 8.43173 78.0867 8.88578C78.1018 8.90518 78.1169 8.92457 78.1325 8.94455C78.529 9.45357 78.8525 10.0002 79.1332 10.5808C79.1536 10.623 79.1536 10.623 79.1745 10.6661C79.2361 10.7973 79.2873 10.9254 79.3286 11.0645C79.3368 11.0921 79.345 11.1197 79.3534 11.1482C79.3597 11.1693 79.3659 11.1904 79.3723 11.2121C78.8993 11.2257 78.4262 11.2359 77.953 11.2422C77.7333 11.2452 77.5136 11.2493 77.2939 11.2559C77.1023 11.2618 76.9108 11.2655 76.7191 11.2668C76.6176 11.2676 76.5165 11.2696 76.4151 11.2736C75.7981 11.2966 75.7981 11.2966 75.6335 11.1559C75.5229 11.0179 75.4556 10.8668 75.3929 10.7025C75.3463 10.5922 75.2804 10.4987 75.2095 10.4028C75.1963 10.3848 75.1831 10.3668 75.1695 10.3482C75.0334 10.1643 74.8782 9.99915 74.7197 9.83467C74.6963 9.80894 74.6729 9.78322 74.6487 9.75671C73.6937 8.74018 72.2289 8.38426 70.8862 8.33087C69.8462 8.31181 68.7982 8.52006 67.8633 8.97761C67.841 8.98847 67.8187 8.99932 67.7957 9.01051C66.792 9.50515 65.9609 10.3032 65.415 11.2792C65.3846 11.3333 65.3535 11.3869 65.3224 11.4404C64.3347 13.1748 64.2678 15.4703 64.7718 17.3645C65.0375 18.3206 65.5079 19.2016 66.1812 19.9314C66.2297 19.9844 66.275 20.0381 66.3194 20.0945C67.1865 21.0949 68.6058 21.6386 69.8835 21.8028C69.9152 21.8072 69.9152 21.8072 69.9475 21.8116C70.2133 21.8434 70.4809 21.8409 70.7482 21.8411C70.7871 21.8411 70.7871 21.8411 70.8267 21.8412C71.2329 21.8406 71.627 21.8232 72.0261 21.7416C72.0532 21.7362 72.0802 21.7308 72.1081 21.7252C72.4708 21.6505 72.8182 21.551 73.1587 21.4049C73.18 21.3958 73.2013 21.3867 73.2232 21.3773C74.1771 20.9625 74.9024 20.2993 75.4414 19.4159C75.4529 19.3977 75.4643 19.3795 75.4761 19.3607C75.5174 19.2925 75.5174 19.2925 75.5504 19.2151C75.6531 19.0038 75.6531 19.0038 75.7746 18.959C75.87 18.949 75.9613 18.9489 76.0572 18.952C76.111 18.952 76.111 18.952 76.1659 18.9519C76.2842 18.9521 76.4024 18.9545 76.5206 18.9569C76.6027 18.9575 76.6848 18.9579 76.7669 18.9582C76.9608 18.9592 77.1546 18.9617 77.3484 18.9647C77.5691 18.9682 77.7898 18.9699 78.0106 18.9714C78.4645 18.9746 78.9184 18.98 79.3723 18.9868C79.3577 19.0311 79.343 19.0753 79.3283 19.1196C79.3161 19.1566 79.3161 19.1566 79.3036 19.1943C78.9996 20.0885 78.4292 20.9466 77.7902 21.6346C77.7275 21.7023 77.6667 21.7711 77.6066 21.8411C77.187 22.3224 76.6661 22.7186 76.1277 23.0578C76.1095 23.0693 76.0912 23.0809 76.0723 23.0928C74.7983 23.8906 73.3931 24.3288 71.9037 24.4964C71.8765 24.4996 71.8493 24.5028 71.8213 24.5061C70.9622 24.5932 70.0309 24.5769 69.1795 24.4352C69.1428 24.4291 69.106 24.423 69.0682 24.4168C67.4507 24.1391 65.9109 23.4729 64.6493 22.415C64.6266 22.3964 64.6266 22.3964 64.6034 22.3774C64.171 22.0223 63.7686 21.6328 63.425 21.1906C63.3971 21.1569 63.369 21.1232 63.3409 21.0896C62.1696 19.6792 61.4957 17.8658 61.3435 16.0483C61.3402 16.0127 61.3368 15.9771 61.3333 15.9403C61.1315 13.429 61.8138 10.885 63.4498 8.94509C63.5023 8.88411 63.5554 8.82372 63.6086 8.76335C63.6304 8.73821 63.6521 8.71308 63.6745 8.68718C63.9817 8.33767 64.311 8.00662 64.6799 7.72264C64.7193 7.69157 64.7587 7.66048 64.7981 7.62938C65.9591 6.71911 67.3298 6.08864 68.7777 5.80192C68.8062 5.79621 68.8346 5.79049 68.8639 5.78461C69.5007 5.66624 70.1378 5.62512 70.7845 5.62974Z" fill="#FF4E4E"/>
<path d="M132.704 5.6353C132.737 5.63513 132.769 5.63495 132.802 5.63477C132.87 5.63449 132.939 5.63429 133.007 5.63417C133.109 5.63387 133.21 5.63292 133.312 5.63196C134.443 5.62636 135.648 5.81674 136.647 6.37532C136.707 6.40889 136.768 6.44126 136.829 6.47359C137.09 6.61424 137.329 6.77032 137.56 6.95771C137.577 6.97106 137.593 6.9844 137.61 6.99816C138.662 7.85669 139.265 9.0129 139.45 10.3521C139.46 10.465 139.458 10.5787 139.458 10.692C138.347 10.692 137.236 10.692 136.091 10.692C136.061 10.5607 136.03 10.4294 135.999 10.2941C135.796 9.60825 135.355 9.04889 134.725 8.70147C133.817 8.21765 132.706 8.12824 131.717 8.3973C131.304 8.52318 130.934 8.71982 130.612 9.00852C130.593 9.0247 130.574 9.04088 130.554 9.05754C130.105 9.46638 129.94 10.097 129.912 10.6824C129.89 11.2639 130.056 11.7512 130.432 12.1938C131.281 13.0999 132.666 13.379 133.816 13.6994C138.061 14.8835 138.061 14.8835 139.121 16.6608C139.411 17.1823 139.565 17.7245 139.642 18.3137C139.645 18.3363 139.648 18.3588 139.651 18.3821C139.808 19.7493 139.481 21.1575 138.622 22.2481C138.498 22.4011 138.369 22.5479 138.234 22.6908C138.209 22.7171 138.185 22.7434 138.16 22.7705C137.256 23.7157 135.986 24.2535 134.714 24.4661C134.67 24.4736 134.67 24.4736 134.625 24.4813C132.662 24.8005 130.408 24.4604 128.771 23.2868C128.614 23.1708 128.469 23.0467 128.327 22.912C128.263 22.8512 128.197 22.7949 128.129 22.7386C127.978 22.6068 127.858 22.4508 127.735 22.2929C127.701 22.2503 127.701 22.2503 127.666 22.2068C127.172 21.5747 126.877 20.8243 126.759 20.0335C126.755 20.0095 126.752 19.9854 126.748 19.9607C126.715 19.7141 126.725 19.4865 126.725 19.232C127.805 19.232 128.886 19.232 130 19.232C130.04 19.434 130.081 19.636 130.122 19.8441C130.254 20.2694 130.436 20.6437 130.734 20.9767C130.759 21.0044 130.784 21.0322 130.81 21.0607C131.421 21.7069 132.278 21.9334 133.144 21.9619C134.078 21.9803 135.088 21.7965 135.794 21.1411C136.307 20.6378 136.552 20.014 136.56 19.2989C136.558 18.6437 136.357 18.1281 135.902 17.6518C135.725 17.4809 135.535 17.3396 135.326 17.2118C135.308 17.2007 135.29 17.1895 135.271 17.1781C134.405 16.6559 133.339 16.4482 132.373 16.1834C129.494 15.3937 129.494 15.3937 128.622 14.7324C128.597 14.7134 128.572 14.6944 128.545 14.6748C127.543 13.897 126.96 12.912 126.798 11.6481C126.773 11.4099 126.775 11.1704 126.776 10.9312C126.776 10.9048 126.776 10.8785 126.776 10.8513C126.778 10.4656 126.787 10.0892 126.878 9.71253C126.884 9.68681 126.89 9.66108 126.896 9.63457C127.2 8.38827 127.979 7.3006 129.077 6.62926C130.166 5.98187 131.437 5.6408 132.704 5.6353Z" fill="#FF4E4E"/>
<path d="M175.026 5.85596C178.349 5.85596 181.672 5.85596 185.096 5.85596C185.096 6.67414 185.096 7.49232 185.096 8.33529C182.632 8.33529 180.167 8.33529 177.628 8.33529C177.628 12.7999 177.628 17.2646 177.628 21.8645C180.092 21.8645 182.557 21.8645 185.096 21.8645C185.096 22.6928 185.096 23.5211 185.096 24.3745C181.773 24.3745 178.45 24.3745 175.026 24.3745C175.026 18.2634 175.026 12.1522 175.026 5.85596Z" fill="#FF4E4E"/>
<path d="M142.274 5.85596C146.537 5.85596 150.799 5.85596 155.191 5.85596C155.191 6.68424 155.191 7.51252 155.191 8.3659C153.575 8.3659 151.959 8.3659 150.294 8.3659C150.294 13.6487 150.294 18.9316 150.294 24.3745C149.284 24.3745 148.273 24.3745 147.233 24.3745C147.233 19.0916 147.233 13.8088 147.233 8.3659C145.596 8.3659 143.96 8.3659 142.274 8.3659C142.274 7.53762 142.274 6.70934 142.274 5.85596Z" fill="#FF4E4E"/>
<path d="M179.097 13.7227C181.076 13.7227 183.056 13.7227 185.096 13.7227C185.096 14.5509 185.096 15.3792 185.096 16.2326C183.116 16.2326 181.136 16.2326 179.097 16.2326C179.097 15.4043 179.097 14.576 179.097 13.7227Z" fill="#FF4E4E"/>
</svg>
