<svg width="280" height="246" viewBox="0 0 280 246" fill="none" xmlns="http://www.w3.org/2000/svg">
<g clip-path="url(#clip0_2297_30)">
<mask id="mask0_2297_30" style="mask-type:luminance" maskUnits="userSpaceOnUse" x="0" y="0" width="280" height="246">
<path d="M279.907 245.477L279.907 0L0 0L0 245.477L279.907 245.477Z" fill="white"/>
</mask>
<g mask="url(#mask0_2297_30)">
<path d="M253.738 295.31L254.438 294.492L255.137 294.901V294.492L257.936 295.555L256.257 294.41L258.216 294.655L256.817 294.164H260.735L255.277 293.428L288.446 256.361V257.588L289.006 256.443L289.986 258.57V255.624L290.126 255.788L289.846 255.052L290.546 254.888L289.986 254.643L290.546 254.07H290.126L330.852 162.998L331.412 163.898V162.016H331.832V161.688L332.392 161.279H331.972L334.631 158.906L332.112 160.297L333.231 157.843L331.692 159.725L334.351 105.065V104.247H335.191L334.351 103.674V103.428L334.351 99.8281H334.491L336.031 65.7067L337.71 64.9703L336.031 65.3794L337.85 19.1478L338.27 19.3933L337.99 18.3296H338.41L337.99 17.9204V17.4295H337.85L327.073 -27.9838H327.353L327.213 -28.2293L328.333 -29.2112L327.633 -29.0476L329.033 -31.1751L326.934 -29.3749V-29.9477L326.374 -29.2112L309.719 -45.4946L312.378 -46.231H309.859L310.139 -46.4765L309.159 -46.231L308.74 -46.6401L308.32 -46.1492L75.157 -45.0854V-45.2491H74.7371L74.1773 -46.4765L73.7574 -45.2491H73.3376V-45.0854L7.41943 -35.5118L7.13953 -38.2121L6.2998 -35.5118H6.0199V-35.2663L4.2005 -35.0209L5.87994 -34.6936L-24.9099 51.3054L-27.429 51.0599L-25.0498 51.5509L-29.2484 63.4156L-30.368 62.0246L-29.9482 63.9066L-30.6479 63.6611L-29.9482 64.5612L-30.508 64.7248L-29.9482 64.9703L-30.368 65.6249L-29.8082 65.4613L-26.4493 167.007V167.089L-26.8692 167.334L-26.4493 167.498V168.398V168.316L-26.1694 196.383L-27.0092 195.728L-26.4493 197.119H-27.1491L-26.5893 197.446L-27.8489 197.774L-26.1694 197.937V198.183L-7.2757 271.744L-7.69556 271.99H-7.2757L-7.41565 273.053L-6.99579 272.726L-6.43597 275.017L-6.01611 272.399L65.6401 293.019L62.2813 293.755L65.92 293.51L65.5002 293.837L66.4799 293.592L66.06 294.819L67.3196 293.755L67.7394 294.164V293.592L69.139 293.919L68.5792 293.346L253.318 293.919V295.065L253.738 295.31ZM-12.0341 172.98L21.1349 185.5L-24.49 197.119L-24.7699 168.153L-12.0341 172.98ZM319.936 -27.0838L291.385 -20.0467L301.602 -34.5299L308.74 -44.7581L325.254 -28.393L319.796 -27.0838H319.936ZM250.519 292.855L195.937 285.655L201.955 274.935L222.948 282.627L250.659 292.773L250.519 292.855ZM72.7778 292.528L78.7958 291.219L156.47 273.79V273.953L156.89 273.79L159.409 275.263L158.569 274.281L192.858 285.655L105.947 290.646L72.9177 292.528H72.7778ZM7.55939 -34.2026L65.2203 -23.3198L47.1663 -14.7281L12.0379 1.96441L11.758 -0.572193L7.55939 -34.2026ZM75.157 -44.1035L159.549 -40.585L91.9514 -10.7186L80.1953 -33.8753L75.017 -44.1035H75.157ZM168.786 -40.7487L304.961 -45.0854L297.543 -43.1216L261.155 -33.3844L260.875 -33.548V-33.3844L176.064 -40.1759L168.646 -40.7487H168.786ZM309.719 0.000587463L336.031 17.9204L323.715 20.948L310.559 24.1392V23.8119L310.139 24.0574L309.859 13.6655L309.579 0.0824127L309.719 0.000587463ZM10.4984 202.765L16.2365 205.874L25.7534 211.029L20.9949 220.112L16.3765 228.949L10.4984 202.683V202.765ZM24.0739 185.582L23.794 185.418L64.9404 162.916L69.4189 202.847L28.8323 187.3L24.2139 185.5L24.0739 185.582ZM39.4688 6.0557L28.8323 18.0023L12.4578 2.94632L64.6605 -21.9287L39.6088 6.0557H39.4688ZM316.297 168.971L287.607 184.763L294.044 159.643L329.173 161.852L316.297 168.971ZM16.5164 43.5319L29.2522 19.4751L37.3695 23.3209L73.7574 40.668L71.938 40.8317L73.0577 40.9953L10.9183 54.0875L16.5164 43.5319ZM291.245 -10.8004L274.031 8.83778L257.097 -25.8564L263.255 -23.1561L291.245 -10.8004ZM304.541 58.0969L330.992 66.6886L314.338 71.0254L308.74 72.4983V72.3346L306.92 65.6249L304.821 58.0151L304.541 58.0969ZM312.378 85.1813L309.299 80.4354L310.559 79.2898L313.358 76.6714L312.518 84.5267V85.1813H312.378ZM304.261 101.301L258.916 111.12L268.573 105.147L286.627 93.9366L286.907 94.2639V93.9366L298.943 99.0098L304.261 101.301ZM280.469 199.083L277.67 192.537L287.607 199.41L285.787 211.357L280.469 199.083ZM277.95 232.713L272.911 237.705L272.492 238.196L214.551 218.476L217.21 219.048L277.95 232.795V232.713ZM27.0129 211.766L27.2928 211.929V211.275L63.4009 208.902L25.3335 232.55L26.3132 220.685L27.0129 211.848V211.766ZM20.715 52.7783L73.7574 41.6499L58.3625 59.7334L34.0106 88.2906L10.6384 54.9875L20.855 52.8601L20.715 52.7783ZM29.812 18.8205L45.6268 13.5837L94.1907 -2.53601L74.7371 40.2589L43.2476 25.2848L29.812 18.9024V18.8205ZM92.5112 -9.32756L107.766 -4.99079L114.764 -3.02697L96.29 -3.7634L96.5699 -4.25436L95.8701 -4.00888L92.7912 -9.1639V-9.32756H92.5112ZM303.141 57.7696L306.36 69.5525L299.363 59.4061L298.383 58.0969L303.001 57.8514L303.141 57.7696ZM285.647 185.827L278.929 189.182L276.69 190.246L272.212 178.872L270.112 173.553L284.388 185.009L285.367 185.827H285.647ZM126.24 252.106L127.36 251.451L132.538 248.26L129.459 256.525L127.919 254.397L126.24 252.106ZM81.175 255.133L66.4799 209.638L132.398 246.787L113.364 249.897L81.175 255.133ZM58.9224 136.568L116.723 98.7644L119.102 102.037L131.838 119.221L114.764 123.312L58.9224 136.568ZM297.123 55.4785L301.602 57.0332L298.383 57.1968V56.7059L297.963 56.9514L297.403 55.9695L297.123 55.4785ZM307.9 79.8626L298.523 78.5534L296.983 78.3079L301.042 76.5077L307.34 73.8075L307.76 78.7989V79.7808L307.9 79.8626ZM277.39 82.3992L269.133 73.562L293.765 78.717L294.324 78.7989L286.627 92.2183L277.39 82.3174V82.3992ZM256.257 34.122L253.738 44.6775L228.686 34.9402L257.796 27.7395L256.257 34.122ZM306.5 73.1529H306.78L300.762 75.7713L296.144 77.7351L298.103 59.5698L307.2 72.9074L306.5 73.0711V73.1529ZM89.4322 207.429L172.005 221.258L133.938 246.296L133.518 245.805V246.133L72.218 204.565L89.4322 207.429ZM101.608 168.725L112.245 164.716L119.942 161.77H120.362L128.899 163.243L168.926 170.035L159.129 169.871L101.608 168.725ZM122.461 0.000587463L129.319 3.1918L100.768 -2.61784L118.403 -1.96323L122.461 0.000587463ZM253.738 150.315L241.562 156.615L232.185 161.443L231.905 151.46L242.542 150.887L253.738 150.315ZM252.898 186.973H252.618L253.038 187.3L219.169 189.346L231.485 164.225L231.765 163.57L239.463 172.244L252.898 187.136V186.973ZM129.459 130.595L124.701 150.151L88.3126 151.378L131.698 120.857L129.319 130.595H129.459ZM119.522 95.8186L129.319 83.3811L129.599 84.6085L130.159 82.8902L130.719 83.3811L130.439 82.3992H130.998L139.676 82.7265L138.276 83.7084L119.522 95.9005V95.8186ZM252.478 45.4958L253.318 45.6594L242.402 67.1796L234.844 50.3235L228.406 35.9221L252.898 45.4958H252.618H252.478ZM122.181 157.843L125.68 151.215L170.465 169.462L120.642 161.034L122.321 157.843H122.181ZM133.238 120.448L139.256 124.049L174.524 145.078L172.285 144.832L174.384 145.487L153.951 147.451L126.24 150.069L133.238 121.021L133.378 120.366L133.238 120.448ZM175.224 -2.20871L188.24 21.1935L198.036 38.7042L197.057 38.5406L178.303 36.004V35.9221H178.023L177.743 32.4036L175.084 -2.29054L175.224 -2.20871ZM161.648 36.904H162.908H162.628H176.483L161.928 61.0427V46.7231L161.648 36.9859V36.904ZM185.021 63.4156L170.745 63.0883L162.208 62.9247L177.183 38.0496L185.161 63.4156H185.021ZM166.127 67.1796L162.488 63.7429L182.082 64.152L167.526 66.9341L166.267 67.1796H166.127ZM189.079 63.7429L190.059 63.5793H186.98L198.316 42.2227L199.436 40.1771L240.582 68.1615L234.564 67.6705L189.079 63.7429ZM158.429 65.8704L160.529 64.3975V65.6249L161.368 64.2339L164.307 66.9341L162.348 66.525L158.429 65.7886V65.8704ZM187.12 64.3975L203.494 65.7886L240.582 68.9798L201.815 85.6722V85.5904L200.975 85.9995L189.219 67.5069L187.12 64.3157V64.3975ZM198.176 39.6861L186.14 62.1882L178.163 37.1495V36.9859L196.777 39.4406L198.036 39.6043L198.176 39.6861ZM174.104 36.0858H161.648V35.4312L160.949 35.9221L153.951 31.5035L151.992 30.2761L160.249 32.4854L174.104 36.1676V36.0858ZM149.052 30.1125L149.332 30.4398L149.612 29.9488L154.931 33.3037L159.129 36.004L145.974 34.6947L146.533 34.3674H145.694L148.913 30.4398V30.1943L149.052 30.1125ZM167.246 67.916L168.366 67.6705L185.58 64.3975L186 65.5431L186.28 65.1339L199.156 85.2631L169.766 69.1434L167.386 67.8342L167.246 67.916ZM201.815 86.8178L216.79 80.3536L241.842 69.5525L255.277 111.447L201.815 86.8178ZM159.549 31.3399L149.892 28.8033L160.669 2.53719L176.343 35.7585L159.689 31.3399H159.549ZM147.793 28.2305L146.253 27.8214L148.353 29.1306L148.073 29.4579L144.714 33.631L135.477 9.73786L147.933 28.2305H147.793ZM144.994 35.2675L159.549 36.7404L140.095 49.9143L144.994 35.2675ZM139.816 51.3054L160.249 37.5586L160.529 62.4337L154.511 59.1607L139.956 51.3054H139.816ZM157.45 66.525L164.587 67.8342L144.434 79.7808L155.63 68.407L157.59 66.4432L157.45 66.525ZM140.655 81.9082H140.375L132.538 81.6628L134.497 81.1718L131.418 81.4173L153.811 68.407L140.515 81.9082H140.655ZM142.475 82.0719L165.847 68.2433L181.102 76.5896L198.596 86.1632L161.508 83.4629L142.475 82.0719ZM200.975 87.5542L202.235 88.2906V88.0452L211.892 92.5456L254.717 112.266L254.997 112.347L218.19 127.731L177.463 144.832L185.86 124.212L200.975 87.5542ZM230.366 163.079L217.63 189.264L207.413 184.763L177.743 171.671H178.163L176.623 171.098H179.842L177.043 170.689L201.255 167.253L230.505 163.079H230.366ZM175.504 146.305V146.796L175.644 146.632L173.684 168.889V168.725V169.871L172.705 169.462V169.544L127.08 150.969L175.504 146.305ZM229.386 162.343L174.944 170.116L176.763 149.333L177.043 146.387L197.756 152.688L229.386 162.261V162.343ZM197.616 203.42L205.594 216.021H203.215L204.194 216.348L174.804 220.521L177.883 218.23L197.616 203.501V203.42ZM168.366 229.522H168.086V229.686L140.375 243.187L171.585 222.649L170.745 224.449L168.366 229.522ZM198.036 201.783L175.924 171.835L207.133 185.582L216.93 189.918L198.036 201.783ZM229.246 151.378L228.406 151.706H230.086L229.806 152.115L230.505 151.869L230.785 161.688L216.93 157.515L180.822 146.551L219.589 150.396L229.246 151.378ZM178.303 145.487L254.857 113.411L230.785 150.724L178.303 145.487ZM240.862 67.0978L200.415 39.5225L224.487 35.7585L223.508 36.2494L226.587 35.513L232.885 49.4234L240.862 67.0978ZM199.576 38.786L189.359 20.457L176.203 -3.02697L225.887 34.6947L199.576 38.786ZM123.161 47.9505L131.558 43.041L143.454 36.004L138.836 49.8325V50.2416H138.696V50.7326L127.78 48.7688L123.301 47.9505H123.161ZM143.594 54.3329L154.791 60.3062L160.249 63.252L159.829 63.4974L157.17 65.2976L150.172 59.7334L143.454 54.3329H143.594ZM199.576 87.7997L194.118 101.219L176.203 144.914L139.676 123.148L133.798 119.63L160.389 106.783L199.716 87.7997H199.576ZM124.281 151.051L123.161 153.097L119.242 160.707L89.4322 152.197L124.281 151.051ZM197.057 202.52L192.158 206.202L173.824 219.867L174.944 172.489L197.057 202.438V202.52ZM170.046 228.949L173.264 221.994L173.544 222.24V221.667L174.804 221.912L174.104 221.421L200.415 217.739L202.235 217.494L178.023 226.167L169.906 229.031L170.046 228.949ZM198.596 202.683L216.65 191.309L206.433 214.957L198.736 202.601L198.596 202.683ZM232.885 163.325L267.593 172.08L265.214 174.208L266.194 173.717L254.018 186.891L232.885 163.325ZM243.381 70.2072L243.661 70.3708L243.241 69.3071L251.778 70.6981L266.614 73.1529L256.257 109.893L243.521 70.1253L243.381 70.2072ZM265.914 72.3346L251.359 69.8798L243.801 68.6525H244.081L243.241 68.4888L254.158 47.0504L266.474 72.3346H266.054H265.914ZM173.544 -3.68158L176.343 32.8946L161.368 1.22798L164.587 0.818844L162.348 0.655193L172.985 -4.00888L172.145 -2.29054L173.544 -3.68158ZM148.773 27.7395L133.658 5.23744L136.037 5.72839L133.938 4.74649L159.409 1.47345L152.131 19.1478L148.633 27.7395H148.773ZM142.335 35.513L121.482 47.8687H120.782V47.7869L78.5159 41.3226L142.335 35.4312V35.513ZM125.54 49.5052L137.996 51.7145L137.576 52.8601L129.599 79.5353L122.601 49.0143L125.68 49.587L125.54 49.5052ZM139.116 52.4509L156.05 66.1159L148.493 70.4526L130.439 80.9263L135.057 65.7886L139.116 52.4509ZM141.495 82.972L198.876 87.1451L159.829 105.965L133.518 118.73V118.321L137.576 100.155L141.495 82.8902V82.972ZM168.646 230.586L188.1 251.206L135.197 246.869L168.786 230.504L168.646 230.586ZM189.079 250.715L174.804 235.495L169.766 230.095L201.675 218.721L205.314 217.412L200.975 226.413L189.219 250.715H189.079ZM268.853 171.017V170.935L268.713 171.098L264.934 164.634L256.817 151.051L282.148 159.397L268.853 171.098V171.017ZM267.313 171.262L232.465 162.425L242.262 157.352L254.997 150.724L263.395 164.798L267.173 171.262H267.313ZM254.438 149.66L245.481 150.151L233.724 150.724L260.316 140.823L255.137 149.415L254.298 149.087L254.578 149.578L254.438 149.66ZM260.456 139.759L232.185 150.233L255.557 114.066L260.735 139.35H259.896L260.456 139.677V139.759ZM294.184 78.2261L268.573 72.8256L296.284 58.8334L294.324 78.2261H294.184ZM206.573 18.9842L175.784 -4.41801L271.932 10.3106L226.867 34.3674L206.573 18.9842ZM132.258 3.92823L120.362 -1.63593L156.19 0.982498L132.818 4.01005V3.68275L132.258 4.01005V3.92823ZM131.978 5.31927L143.314 34.4493L76.8364 40.5862L107.486 21.0298L132.118 5.31927H131.978ZM128.199 80.599L76.6965 41.8954L120.782 48.6051L128.199 80.599ZM139.676 83.6266L135.897 100.401L131.978 118.075L117.283 98.2734L139.676 83.6266ZM86.2133 151.378L57.2429 137.877L130.019 120.612L86.3533 151.378H86.2133ZM117.843 161.443L108.466 165.043L99.0891 168.644L87.7528 152.851L117.843 161.525V161.443ZM100.349 169.626L107.066 169.789L173.264 171.098V171.262L172.005 220.112L129.879 190.573L100.209 169.789L100.349 169.626ZM295.584 55.3967L296.564 57.2787V57.5241L275.99 67.916V67.8342L295.584 55.3967ZM270.112 8.91961L175.504 -5.56357L192.298 -22.1742L194.677 -21.1923L269.972 9.00143L270.112 8.91961ZM192.578 -23.238L186.7 -28.7203L247.44 -26.8383L192.578 -23.238ZM191.039 -23.1561H190.339L191.318 -22.6652L176.483 -8.10017L185.58 -28.1475L186.42 -27.4111L191.039 -23.1561ZM96.15 -2.86332L131.698 4.41918L84.5339 34.5311L76.8364 39.4406L78.5159 35.5948L96.0101 -2.86332H96.15ZM116.583 97.537L57.2429 100.074L128.339 82.5629L116.583 97.537ZM59.0623 139.268L84.6738 151.133L70.3986 150.233L60.3219 140.414L59.0623 139.268ZM70.3986 151.051L85.2336 152.033L66.6198 161.034L70.1187 151.787L70.3986 151.051ZM99.5089 169.707L115.883 181.163L171.305 220.112L71.2383 203.338L71.6581 202.929L87.193 184.272L99.5089 169.626V169.707ZM173.125 250.469L188.24 251.697L156.89 272.481L135.057 247.36L173.125 250.469ZM190.899 251.206V251.124L190.619 251.124L206.294 218.885L208.253 254.561L195.657 252.188L191.039 251.288L190.899 251.206ZM208.113 214.793L218.889 190.082L252.478 188.036L248.699 190.327L208.113 214.793ZM255.697 187.3L256.257 186.973H255.697L268.713 172.817L273.611 185.663L275.011 189.427L275.291 190.491L264.094 188.773L255.557 187.464L255.697 187.3ZM272.352 169.38L283.688 159.315L285.647 159.97L284.807 159.234L291.665 159.479L281.589 164.634L272.352 169.298V169.38ZM281.309 157.597L279.209 156.861L257.097 149.578L257.936 149.169H256.957L262.275 140.414L266.893 144.505L281.449 157.597H281.309ZM257.517 110.875L268.013 73.9711L277.11 83.6266L285.927 93.0365H285.507L285.927 93.282L266.194 105.556L257.656 110.875H257.517ZM297.963 79.3716L299.783 79.6171L307.9 80.7627V81.7446L308.46 81.3355L311.399 85.8359L297.963 79.3716ZM309.159 79.0443V77.9806L308.88 75.5258L309.719 76.6714L308.88 73.8893L313.218 75.2803L309.159 79.0443ZM294.604 54.7421L272.492 68.9798L267.873 71.9255L255.277 45.9867L284.668 52.5328L294.604 54.7421ZM278.789 37.395L255.137 44.5138L259.056 27.6577L274.731 35.3493L278.789 37.3132V37.395ZM258.356 26.2667L258.076 26.103V26.594L254.717 27.4122L230.785 33.3855L271.372 11.7017L262.835 21.2753L258.356 26.2667ZM272.632 8.83778L238.763 -4.74531L194.118 -22.5833L255.277 -26.5928L268.433 0.246063L272.632 8.83778ZM173.125 -7.11826L172.565 -7.60921L173.404 -6.05453H172.705L173.544 -5.56357L161.648 -0.326714L162.488 -36.9029L165.287 -29.2112L173.264 -7.20008L173.125 -7.11826ZM160.949 -39.1122L160.109 0.0824127L141.775 -1.2268L119.802 -2.86332L151.012 -30.3568L160.949 -39.1122ZM118.263 -3.02697L92.7912 -10.2276L158.989 -38.703L118.403 -3.02697H118.263ZM35.2702 88.6998L50.8051 70.5345L75.5768 41.6499L101.888 61.37L128.479 81.4173L91.2516 84.2812L35.4102 88.618L35.2702 88.6998ZM57.9427 139.841L61.1616 142.95L68.999 150.642L66.6198 156.861L65.3602 160.052L64.5205 157.843L57.9427 139.759V139.841ZM66.7598 161.852L86.4932 152.278L92.6512 160.87L97.8295 168.153L68.2993 162.098L66.6198 161.77L66.7598 161.852ZM70.1187 204.32L123.301 240.405L66.3399 208.329L67.1796 207.838H66.6198L69.4189 205.056V205.22L70.1187 204.402V204.32ZM124.281 248.751L131.418 247.606L130.579 248.096L124.98 251.533L90.6918 254.315L124.281 248.833V248.751ZM133.938 248.015L147.793 263.971L154.091 271.09L130.439 257.588L133.938 248.015ZM158.569 272.481L188.519 252.679L184.601 268.717L183.901 268.553L184.181 269.044H182.781L183.061 269.208L179.282 269.699L158.429 272.481H158.569ZM186.14 268.144L190.059 251.942L201.535 254.152L206.713 255.133L207.413 255.297L195.517 262.498L186.14 268.226V268.144ZM255.837 188.118L264.234 189.427L275.571 191.228V191.637H275.711L284.388 211.766L258.496 190.491L255.697 188.118H255.837ZM277.11 190.9L279.349 189.837L285.367 186.809V186.891L285.787 186.645L287.327 197.937L277.11 190.9ZM285.927 184.763L283.548 182.799L269.693 171.671L280.469 166.189L292.365 160.134L288.446 175.353L286.067 184.763H285.927ZM291.525 158.661L283.688 158.334L271.932 147.778L266.893 143.196L284.528 154.242L291.525 158.661ZM316.297 139.595L262.835 139.105L263.255 138.532L262.415 138.859L257.097 113.084L262.835 115.702L316.017 139.677L316.297 139.595ZM287.886 92.4638L295.444 79.1262L311.399 86.8178L297.543 90.0908L287.747 92.3819L287.886 92.4638ZM294.184 53.7602L282.988 51.2236L255.837 45.1684L273.891 39.6861L279.349 38.0496V38.1314L279.629 37.9678L290.965 50.2416L294.184 53.6783V53.7602ZM278.929 36.4949L272.352 33.3037L259.336 26.8395L264.654 20.7843L273.191 11.2107L278.929 36.4949ZM254.578 -27.6565L251.219 -28.393L253.318 -27.4929L211.752 -28.8021L195.237 -29.2931L259.756 -32.5661L255.417 -27.6565L254.438 -28.0657V-27.6565H254.578ZM184.321 -29.0476L174.384 -7.20008L164.307 -35.0209L162.768 -39.4395L167.666 -37.0665L184.461 -29.0476H184.321ZM90.9717 -9.49121L93.211 -5.89087L94.3306 -3.92705L90.272 -4.0907L93.6309 -3.35427L55.4235 9.32873L36.2499 15.7111L90.9717 -9.49121ZM35.2702 89.4362L50.945 88.2088L124.281 82.481L93.071 90.1726L52.7644 100.074L35.1302 89.4362H35.2702ZM53.4642 100.974L115.044 98.3552L92.0914 113.411L56.8231 136.486L55.2836 119.548L53.6041 100.974H53.4642ZM65.92 162.589L90.6918 167.662L97.4096 169.053L96.7098 169.298H97.8295L70.2586 202.029L67.4595 177.644L65.7801 162.589H65.92ZM65.2203 207.429V207.593L64.1006 207.102L64.3806 207.92L40.1686 209.475L34.5704 209.802L68.2993 204.156L65.0803 207.347L65.2203 207.429ZM24.2139 229.277L23.934 232.795L23.794 232.877L16.6564 230.668L25.4734 214.139L24.2139 229.358V229.277ZM25.6134 233.45L50.3852 218.066L64.8004 209.147L79.4955 254.643L62.981 248.178L25.6134 233.531V233.45ZM124.98 252.597L128.619 257.506L100.489 266.916L124.98 252.597ZM130.019 258.488L154.651 272.562L98.5293 268.471L129.319 258.243L129.879 258.979V258.488H130.019ZM176.763 270.844L184.321 269.862V270.517L184.881 270.108L191.458 281.318L193.558 284.918L158.569 273.299L176.763 270.844ZM186.42 270.108L200.555 274.363L194.817 284.509L186.42 270.108ZM187.12 268.717L196.357 263.071L208.393 255.706L213.991 266.753L201.675 267.653L186.98 268.717H187.12ZM209.932 255.543L248.979 262.334L215.67 266.671L210.072 255.624L209.932 255.543ZM210.912 254.888L271.372 239.423L251.359 261.843L210.912 254.806V254.888ZM209.512 254.315L207.413 216.757L242.542 228.704L271.232 238.441L239.742 246.46L209.512 254.152V254.315ZM274.451 238.687L273.891 238.523L278.51 233.941L279.489 248.506L273.751 238.932L274.451 238.768V238.687ZM209.512 215.612L210.912 215.121L208.953 215.366L254.158 188.118V188.282L254.438 188.2L257.796 190.982L284.947 213.402L223.928 215.203L209.512 215.612ZM293.345 158.415L272.771 145.569L263.674 139.841L317.137 140.332L307.48 147.614L293.345 158.334V158.415ZM288.306 93.2002L298.103 90.9091L311.958 87.636L305.521 100.646L288.446 93.282L288.306 93.2002ZM315.037 74.053V73.3165L314.058 74.3803L309.719 72.9892L314.338 71.7618L327.773 68.3252L318.396 72.5801L315.177 74.053H315.037ZM303.141 56.4604L296.983 54.3329L296.704 54.2511L302.022 42.55L307.76 29.9488L306.92 34.4493L302.862 56.6241L303.141 56.4604ZM308.46 25.6939L306.92 28.9669L295.724 53.351L293.345 50.7326L281.029 37.5586H281.309V37.395L305.521 27.0031L308.6 25.6939H308.46ZM276.27 7.93769L292.365 -10.3913L307.76 -1.39045L275.431 8.75595L276.27 7.85587V7.93769ZM289.146 -19.2285L288.726 -18.7375L289.426 -18.9012L291.245 -12.0278L266.614 -22.8288L260.176 -25.6927L284.807 -20.2104L289.146 -19.2285ZM256.817 -27.3292L261.295 -32.4843L286.067 -20.7832L256.817 -27.3292ZM90.132 -10.1458L30.9316 17.184L66.8997 -22.9925L90.4119 -10.2276H90.132V-10.1458ZM52.3445 101.055L54.1639 120.448L55.5635 135.75L54.8637 135.013L55.2836 136.077L6.0199 108.092L48.1459 101.628L52.4845 100.974L52.3445 101.055ZM5.18018 108.911L29.2522 122.576L55.1436 137.304L2.24115 150.887L4.62036 116.93L5.18018 108.829V108.911ZM3.50073 151.46L16.2365 148.187L55.8434 138.041V138.45L56.1233 138.286L64.6605 161.361L51.5048 159.234L3.64069 151.46H3.50073ZM17.2162 231.568L23.934 233.695V234.513V234.35L24.3538 238.196L25.3335 246.705L17.0762 231.486L17.2162 231.568ZM27.2928 249.733L25.8933 237.05L25.6134 234.268L30.3718 236.15L77.6761 254.724L28.1326 249.897L28.4125 249.651H27.4328L27.2928 249.733ZM82.5745 255.706L119.242 252.761L123.441 252.433L96.5699 268.144L82.1547 256.115L83.6941 256.279L82.5745 255.788V255.706ZM201.115 273.544L187.68 269.453L213.011 267.571L201.395 273.544H201.115ZM272.771 239.587L279.489 250.96L253.598 261.107L272.771 239.587ZM278.37 231.731L210.072 216.266L229.806 215.693L285.367 214.057L279.069 230.586L278.23 228.54L278.51 231.731H278.37ZM287.327 185.827H287.607V185.663L304.681 176.172L326.934 163.898L289.006 197.774L287.327 185.745V185.827ZM317.557 138.941L257.936 112.102L290.266 105.065L305.241 101.792L306.78 106.374L317.557 138.941ZM314.898 75.1167L330.292 68.1615L313.918 85.1813L314.898 75.1985V75.1167ZM308.32 24.6302L293.625 30.9308L280.469 36.5767L274.591 10.5561L306.78 23.9756L308.18 24.5483L308.32 24.6302ZM277.25 10.7198H277.53L275.151 9.81969L308.18 -0.654018V0.900673L308.74 23.8937L277.25 10.8016V10.7198ZM292.645 -11.6187L290.826 -18.7375L306.92 -13.9098L296.004 -12.1096L292.645 -11.5369V-11.6187ZM221.269 -31.5024L185.58 -29.7022L185.021 -30.275V-30.0295L163.608 -40.5032L254.717 -33.2207L221.409 -31.5024H221.269ZM27.7127 18.4932H27.4328L27.7127 18.6569L21.1349 23.0755L-18.8918 49.9962L11.4781 3.5191L27.7127 18.4114V18.4932ZM-19.5916 51.7145L12.3178 30.2761L27.0129 20.3752L9.23883 54.1693L-16.0928 52.0418L-19.5916 51.7145ZM7.13953 54.7421L3.36078 55.724L1.26147 56.2149L0.981567 56.2968L-14.5533 52.9419L7.13953 54.7421ZM2.1012 56.9514L5.04022 56.2149L9.37878 55.1512L29.6721 84.1175L20.0153 74.6257L2.1012 56.9514ZM33.7307 89.8454V90.0908L34.1506 89.7635L51.6448 100.319L25.4734 104.329L6.71967 107.192L21.2748 97.8643L33.8707 89.7635L33.7307 89.8454ZM-16.0928 115.948L-1.11774 110.465L3.78064 108.665L2.52106 125.521L0.841614 149.087L-10.4946 126.994L-16.0928 115.948ZM0.421753 150.969L0.561707 151.378L-0.697876 151.706H0.00189209L-24.7699 166.189L-16.6526 117.993L0.281799 151.051L0.421753 150.969ZM23.3741 186.154L31.7714 189.346L68.4392 203.338L41.2882 207.838L27.2928 210.129L27.5728 207.429L27.0129 208.575L25.3335 198.346L23.3741 186.073V186.154ZM25.7534 209.72L16.5164 204.647L10.4984 201.374L22.2545 186.809L23.2342 193.191L25.8933 209.638L25.7534 209.72ZM8.95892 201.865L12.1779 216.021L15.1169 229.195L-23.5103 198.101L6.2998 201.538L8.95892 201.865ZM15.6767 232.059V232.631L16.0966 232.14L25.6134 249.651H25.3335L25.4734 249.815L-1.39764 251.124L15.6767 232.059ZM273.331 254.315L280.049 251.697L281.309 253.824V251.942L287.607 254.643L256.817 260.943L273.471 254.397L273.331 254.315ZM287.886 253.661L281.169 250.879L280.049 236.15L283.688 244.496L287.747 253.742L287.886 253.661ZM287.327 211.52L289.006 200.147L289.286 200.392V199.246L324.694 167.416L287.187 211.602L287.327 211.52ZM295.164 158.661H294.884L318.256 140.905L318.536 141.887V141.477L329.733 160.952L295.164 158.743V158.661ZM331.972 103.265L306.78 101.137L313.078 88.4543L313.498 89.1089V88.3725L323.435 96.3914L331.972 103.347L331.972 103.265ZM325.534 96.5551L314.198 87.3087H314.478L314.058 87.0633L332.112 68.3252L332.952 102.528L325.674 96.5551H325.534ZM331.412 65.8704L304.541 57.0332L309.999 26.7576L326.514 56.8695L331.412 65.8704ZM308.32 -2.20871L298.243 -8.10017L293.625 -10.8004L296.704 -11.2914L308.32 -13.1734V-2.29054V-2.20871ZM9.79865 -4.99079L10.7783 2.53719V2.61901V2.78267L-18.6119 47.7869L6.57971 -31.666L9.9386 -5.07261L9.79865 -4.99079ZM-0.697876 56.8695L-27.7089 64.0702L-20.4313 52.6964L-0.697876 56.9514V56.8695ZM0.841614 57.3605L15.3968 71.5982L31.9113 87.7997L-27.569 64.8885L-11.1944 60.5517L0.841614 57.3605ZM-27.2891 65.9522L31.4915 88.618L33.0309 89.1907L23.794 95.164L4.90027 107.274L-21.9708 72.5801L-27.1491 65.9522H-27.2891ZM3.64069 107.765H3.22083L3.50073 107.929L-16.2327 115.13L-27.569 67.5069L-20.5713 76.5896L3.64069 107.765ZM2.66101 152.197L64.1006 162.179L38.0693 176.417L23.2342 184.518V183.863L22.8143 184.354L8.53906 161.607L2.66101 152.197ZM81.035 256.525L82.4346 257.67L95.5902 268.635L94.4706 269.044H95.1704L92.5112 270.68L94.3306 270.026L69.139 291.219L74.0374 277.145L81.175 256.525H81.035ZM96.8498 269.208L153.951 273.299L93.7708 286.8L69.5588 292.201L96.8498 269.126V269.208ZM202.655 274.199L214.691 267.98L215.111 267.735L248 289.991L250.799 291.873L232.745 285.245L202.655 274.199ZM221.968 271.171L216.37 267.407L248.28 263.316L246.88 263.889L250.379 263.152L249.959 263.643L251.219 263.152L252.058 273.79L253.598 292.446L222.108 271.171H221.968ZM288.026 251.042L283.688 241.305L279.769 232.55L280.049 232.304L285.647 217.003L286.767 233.695L287.886 251.124L288.026 251.042ZM319.516 140.496H320.636L319.516 140.005L319.936 139.677H319.376L332.532 107.683L330.013 159.152L319.516 140.496ZM318.676 138.123L306.78 101.874L332.672 104.083L330.432 109.484L318.676 138.123ZM332.112 64.5612L310.419 25.0393L336.45 18.7387L335.191 32.5673L332.112 64.5612ZM309.719 -3.35427V-13.337L310.979 -13.5007L310.139 -13.7462L323.855 -25.2018L311.259 -5.72722L309.719 -3.27245V-3.35427ZM324.414 -27.2474L321.895 -25.2018L308.74 -14.1553L291.665 -19.2285L319.516 -26.02L324.274 -27.1656L324.414 -27.2474ZM289.706 -19.9649L262.835 -32.5661L267.313 -32.8116L263.535 -33.1389L307.34 -44.84L300.202 -34.8572L289.706 -19.9649ZM163.748 -41.4033L164.587 -42.0579L162.908 -41.3215H162.488V-41.7306L162.068 -41.4033L161.089 -44.0217V-41.6488L159.969 -42.2215L160.389 -41.4851H159.129H159.269L91.8114 -44.2672L278.789 -45.1673L163.748 -41.4851V-41.4033ZM74.3173 -42.8761L79.4955 -32.7297L90.272 -11.3732L67.8794 -23.4834L68.2993 -23.6471H67.8794L69.139 -25.0381L68.0193 -24.5472L71.0983 -33.2207L74.4572 -42.8761H74.3173ZM-24.35 167.334L-11.3344 159.806L1.12152 152.606L1.96124 154.324V153.915L8.81897 164.798L21.1349 184.6L-0.977783 176.253L-24.49 167.334H-24.35ZM21.2748 186.4L9.37878 201.047L8.67902 200.638V201.21L-22.8105 197.61L15.1169 187.955L21.2748 186.4ZM-23.6503 199.656L4.76031 222.485L15.2568 230.995L-2.37732 250.715L-22.2507 203.42L-23.7902 199.656H-23.6503ZM-3.21704 251.779L-3.6369 252.27H-3.21704L-5.87616 266.835L-6.29602 268.717L-22.2507 206.447L-3.21704 251.779ZM-4.47662 266.753L-1.8175 252.188L21.4148 251.042L25.0536 250.879L-3.49695 269.617L-5.31635 270.762L-4.61658 266.753H-4.47662ZM28.1326 250.879L80.0554 255.952L67.5995 292.037L28.2725 250.879H28.1326ZM91.5316 292.282L194.677 286.391L195.237 287.209L195.657 286.555L196.497 286.8V286.473L248.14 293.264L81.5948 292.773L91.5316 292.201V292.282ZM252.758 262.825L254.857 262.58H254.298L287.886 255.624L255.137 292.201L252.758 262.825ZM288.446 231.404L287.327 215.203L288.166 215.857L287.467 214.221H287.886L287.327 213.811L328.613 165.289L289.846 252.106L288.446 231.404ZM333.651 83.3811L333.231 67.4251L333.791 67.5887L333.511 66.9341L334.211 66.7705H333.931L334.491 66.3613L333.791 83.2993L333.651 83.3811ZM334.211 65.8704L334.491 65.6249V65.7886H334.211V65.8704ZM334.491 65.3794L333.371 65.8704L335.331 44.923L334.491 65.3794ZM336.17 16.7749L309.999 -1.06315L309.719 -1.2268L316.297 -11.455L325.954 -26.511L336.17 16.7749ZM66.2 -24.0562L9.37878 -34.7754L73.3376 -44.1035L66.2 -24.138V-24.0562ZM-5.17639 0.655193L-21.411 51.7145L-23.3704 51.5509L-5.17639 0.655193ZM-21.9708 52.3691V52.4509H-21.6909L-22.8105 54.0875L-25.8895 58.997L-26.3094 59.5698L-23.6503 52.0418L-22.1108 52.3691H-21.9708ZM-27.8489 71.7618L-17.4923 115.702V115.948L-25.0498 160.379L-27.9888 71.7618H-27.8489ZM-5.03644 271.744L26.4531 251.042L27.8527 253.579V252.024L66.06 292.119L-5.03644 271.662V271.744Z" fill="url(#paint0_linear_2297_30)"/>
</g>
<g opacity="0.25">
<mask id="mask1_2297_30" style="mask-type:luminance" maskUnits="userSpaceOnUse" x="0" y="0" width="280" height="246">
<path d="M279.907 245.478L279.907 0L0 0L0 245.478L279.907 245.478Z" fill="white"/>
</mask>
<g mask="url(#mask1_2297_30)">
<path d="M26.3092 294.165L211.048 293.592L210.488 294.165L211.748 293.838V294.411L212.307 294.001L213.567 295.065L213.147 293.838L214.127 294.083L213.707 293.756L217.346 294.001L213.987 293.265L285.643 272.645L286.063 275.263L286.623 272.972L287.043 273.3V272.318L287.183 272.236L286.763 271.99L305.517 198.429V198.183L307.196 198.02L305.936 197.692L306.496 197.283H305.797L306.356 195.974L305.517 196.629L305.797 168.562V168.644V167.744L306.216 167.581L305.797 167.335V167.253L309.155 65.7074L309.715 65.8711L309.295 65.2165L309.855 64.971L309.295 64.8073L309.995 63.9072L309.295 64.1527L309.715 62.2707L308.596 63.6618L304.397 51.797L306.776 51.3061L304.257 51.5516L274.027 -34.4474L275.706 -34.7747L273.887 -35.0202V-35.2657H273.747L272.907 -37.9659L272.628 -35.2657L206.709 -44.8393V-45.0029H206.429L206.01 -46.2303L205.45 -45.0029H205.03L-28.1328 -46.0667L-28.5526 -46.5576L-28.9725 -46.1485L-29.9522 -46.394L-29.6723 -46.0667H-32.1914L-29.5323 -45.4121L-46.0468 -29.1287L-46.4667 -29.8651V-29.2924L-48.706 -31.0925L-47.3064 -28.9651L-48.0062 -29.1287L-46.8866 -28.1468V-27.9832L-57.5231 17.512L-57.663 18.003L-58.0829 18.3303H-57.663L-57.9429 19.4758L-57.5231 19.2303L-55.5637 65.5438L-57.2432 65.1346L-55.5637 65.8711L-54.0242 99.9924L-53.8843 103.593V103.838L-54.724 104.493H-53.8843V105.229L-51.0852 159.889L-52.6247 158.007L-51.5051 160.462L-54.0242 159.071L-51.3651 161.444H-51.7849L-50.9453 161.935V162.262V164.144L-50.3854 163.244L-9.65894 254.48H-10.0788L-9.51898 254.971L-10.0788 255.216L-9.37903 255.38L-9.65894 256.116L-9.23907 255.952V258.898L-8.53931 256.771L-7.97949 257.916V256.689L25.1895 293.756L19.7313 294.492H23.65L22.2505 294.983L24.2098 294.738L22.5304 295.883L25.3295 294.82V295.229L25.8893 294.82L26.5891 295.638V294.492L26.3092 294.165ZM304.817 168.153L304.537 197.12L258.912 185.5L292.081 172.981L304.817 168.153ZM-45.3471 -28.3923L-28.8326 -44.7574L-21.555 -34.5292L-11.3384 -20.046L-39.8889 -27.0831L-45.3471 -28.3923ZM57.0989 282.71L78.092 275.018L84.11 285.737L29.5281 292.938L57.2389 282.791L57.0989 282.71ZM174.24 290.647L87.3289 285.655L121.618 274.281L120.778 275.263L123.297 273.791V273.954L123.717 273.791L201.391 291.219L207.409 292.529L174.38 290.647H174.24ZM268.289 -0.489674L268.009 2.04692L232.881 -14.6455L214.827 -23.2373L272.488 -34.1201L268.289 -0.489674ZM199.712 -33.8746L187.956 -10.7179L120.498 -40.5843L204.89 -44.1028L199.712 -33.8746ZM103.843 -40.0934L19.1715 -33.3018V-33.4655L18.6117 -33.3018L-17.7762 -43.0391L-25.1938 -45.0029L111.121 -40.6662L103.703 -40.0934H103.843ZM-30.0922 13.6662L-30.3721 24.0581L-30.9319 23.8126V24.1399L-43.9476 20.9487L-56.2635 17.9211L-29.8122 -0.0805473L-30.0922 13.5025V13.6662ZM263.67 229.032L259.052 220.195L254.294 211.112L263.81 205.957L269.549 202.848L263.67 229.114V229.032ZM251.355 187.382L210.768 202.929L215.247 162.998L256.393 185.5L256.113 185.664L251.495 187.464L251.355 187.382ZM215.526 -21.928L267.729 2.94701L251.355 18.003L240.718 6.05639L215.666 -21.928H215.526ZM-49.1259 161.853L-13.9975 159.643L-7.5596 184.764L-36.2501 168.972L-49.1259 161.853ZM269.129 54.0882L206.989 40.996L208.109 40.8324L206.289 40.6687L242.677 23.3216L250.795 19.4758L263.531 43.5326L269.129 54.0882ZM16.6523 -23.1554L22.8103 -25.8557L5.87592 8.83847L-11.3384 -10.7997L16.6523 -23.1554ZM-26.7333 65.7074L-28.5526 72.4171V72.5808L-34.1508 71.1079L-50.8053 66.7712L-24.3541 58.1794L-26.4534 65.7892L-26.7333 65.7074ZM-32.6113 84.5274L-33.451 76.6721L-30.652 79.2905L-29.3924 80.4361L-32.4714 85.182V84.5274H-32.6113ZM-19.1758 99.0105L-7.27972 93.9373V94.2646L-6.71991 93.9373L11.3341 105.147L20.9909 111.121L-24.3541 101.302L-19.0358 99.0105H-19.1758ZM-6.02014 211.357L-7.83954 199.411L2.09717 192.537L-0.701874 199.084L-6.02014 211.357ZM62.5571 218.967L65.2162 218.394L7.27545 238.114L6.85559 237.623L1.81729 232.632L62.5571 218.885V218.967ZM253.454 220.604L254.434 232.468L216.366 208.821L252.614 211.194V211.848V211.685L253.314 220.522L253.454 220.604ZM269.269 54.9064L245.896 88.2095L221.544 59.6523L206.15 41.5688L259.192 52.6971L269.409 54.8246L269.269 54.9064ZM236.519 25.1218L205.03 40.0959L185.576 -2.69897L234.14 13.4207L249.955 18.6576L236.519 25.04V25.1218ZM187.116 -9.24504L184.037 -4.09001L183.337 -4.33549L183.617 -3.84454L165.143 -3.1081L172.141 -5.07192L187.396 -9.40869V-9.24504H187.116ZM-18.616 57.8521L-19.4557 59.1614L-26.4534 69.3078L-23.2344 57.5248L-18.7559 57.7703L-18.616 57.8521ZM-4.62061 184.846L9.65466 173.39L7.55539 178.709L3.07687 190.083L0.837585 189.019L-5.88019 185.664L-4.90051 184.846H-4.62061ZM152.127 254.152L150.588 256.28L147.509 248.015L152.827 251.207L153.947 251.861L152.267 254.152H152.127ZM166.683 249.652L147.649 246.543L213.567 209.394L198.872 254.889L166.683 249.652ZM165.283 123.067L148.209 118.976L160.945 101.793L163.324 98.5196L221.125 136.323L165.283 123.067ZM-17.2164 55.8065L-17.7762 56.7884L-18.1961 56.5429V57.0339L-21.415 56.8702L-16.9365 55.3155L-17.2164 55.8065ZM-27.713 78.7177L-27.2931 73.7263L-20.9952 76.4266L-16.9365 78.2268L-18.476 78.4722L-27.8529 79.7815V78.7996L-27.713 78.7177ZM-6.57996 92.0553L-14.2774 78.6359H-13.5776L-13.7176 78.4722L10.9142 73.3172L2.65698 82.1544L-6.57996 92.0553ZM22.3904 27.4129L51.5008 34.6136L26.4491 44.3509L23.93 33.7953L22.3904 27.4129ZM-27.0132 72.6626L-17.9162 59.325L-15.9568 77.4903L-20.5753 75.5265L-26.5933 72.9899H-26.3134L-27.0132 72.7444V72.6626ZM207.829 204.484L146.529 246.052V245.724L145.969 246.215L107.902 221.177L190.475 207.348L207.689 204.484H207.829ZM120.918 169.79L111.121 169.954L151.148 163.162L159.685 161.689L160.105 161.607L167.802 164.553L178.439 168.563L120.918 169.708V169.79ZM161.784 -1.96254L179.418 -2.61715L150.868 3.19249L157.726 0.00127792L161.784 -1.96254ZM37.5054 150.888L48.1419 151.461L47.862 161.444L38.4851 156.616L26.3092 150.315L37.5054 150.888ZM40.5844 172.081L48.2819 163.407L48.5618 164.062L60.8777 189.183L27.0089 187.137L27.4288 186.81H27.1489L40.4445 171.999L40.5844 172.081ZM148.349 120.858L191.734 151.379L155.346 150.152L150.588 130.595L148.209 120.858H148.349ZM141.911 83.5454L140.511 82.5635L149.188 82.3181H149.748L149.468 83.3L150.028 82.809L150.588 84.5274L150.868 83.3L160.665 95.7375L141.911 83.5454ZM27.2888 45.3328L51.7807 35.7592L45.3428 50.1605L37.7854 67.0166L26.869 45.4964L27.7087 45.3328H27.4288H27.2888ZM159.545 160.953L109.721 169.381L154.507 151.134L158.005 157.761L159.685 160.953H159.545ZM146.949 121.022L153.947 150.07L126.236 147.451L105.803 145.488L107.902 144.833L105.663 145.078L140.931 124.049L146.949 120.449V121.104V121.022ZM102.164 32.4043L101.884 35.9228H101.604V36.0046L82.8504 38.5412L81.8707 38.7049L91.6675 21.1942L104.683 -2.20802L102.024 32.4861L102.164 32.4043ZM118.259 46.5602V60.8797L103.564 36.7411H117.419L117.139 36.9047H118.399V46.5602H118.259ZM95.0264 63.2526L102.864 37.8866L117.839 62.7617L109.302 62.9253L95.0264 63.2526ZM112.521 66.853L97.9654 64.0709L117.559 63.6618L113.92 67.0985L112.661 66.853H112.521ZM45.4828 67.5894L39.4648 68.0804L80.6112 40.0959L81.7308 42.1416L93.067 63.4163H89.988L90.9677 63.6618L45.4828 67.5894ZM117.839 66.4439L115.879 66.853L118.818 64.1527L119.658 65.5438V64.3164L121.758 65.7892L117.839 66.5257V66.4439ZM90.9677 67.4258L79.2116 85.9184L78.3719 85.5093V85.5911L39.7447 68.8986L76.8324 65.7074L93.207 64.3164L91.1077 67.5076L90.9677 67.4258ZM83.2703 39.2777L101.884 36.8229V36.9866L93.9067 62.0253L81.8707 39.5232L83.1303 39.3595L83.2703 39.2777ZM119.938 32.1588L128.195 29.9495L126.236 31.1769L119.238 35.5955L118.539 35.1046V35.7592H106.083L119.938 32.077V32.1588ZM131.274 30.0314L134.493 34.0408H133.654L134.213 34.2863L121.058 35.5955L125.256 32.8953L130.575 29.5404L130.854 30.0314L131.134 29.7041V29.9495L131.274 30.0314ZM110.561 68.8986L81.171 85.0183L94.0467 64.8892L94.3266 65.2983L94.7465 64.1527L111.961 67.4258L113.08 67.6712L110.701 68.9805L110.561 68.8986ZM24.9096 111.121L38.3452 69.2259L63.3969 80.0269L78.3719 86.4912L24.9096 111.121ZM103.843 35.5137L119.518 2.2924L130.295 28.5585L120.638 31.0951L103.983 35.5137H103.843ZM144.71 9.49308L135.473 33.3862L132.114 29.2131L131.834 28.8858L133.933 27.5766L132.394 27.9857L144.85 9.49308H144.71ZM140.091 49.6696L120.638 36.4956L135.193 35.0227L140.091 49.6696ZM125.676 58.9159L119.658 62.1889L119.938 37.3139L140.371 51.0606L125.816 58.9159H125.676ZM124.557 68.244L135.753 79.6178L115.6 67.6712L122.737 66.362L124.697 68.3258L124.557 68.244ZM126.236 68.244L148.629 81.2543L145.55 81.0089L147.509 81.4998L139.672 81.7453H139.392L126.096 68.244H126.236ZM118.679 83.2181L81.5908 85.9184L99.085 76.3448L114.34 67.9985L137.712 81.8271L118.679 83.2181ZM94.1866 123.967L102.584 144.588L61.8574 127.486L25.0496 112.103H25.3295V112.021L68.1553 92.3008L77.952 87.8004V88.0459L79.0717 87.3094L94.1866 123.967ZM78.9317 167.008L103.144 170.444L100.345 170.935H103.564L102.024 171.508H102.444L72.7738 184.519L62.5571 189.019L49.8214 162.835L78.9317 167.008ZM153.107 150.724L107.482 169.299V169.217L106.503 169.626V168.481V168.644L104.543 146.388L104.823 146.551V146.06L153.107 150.724ZM82.2906 152.525L103.004 146.224L103.284 149.17L105.103 169.954L50.6611 162.18L82.2906 152.606V152.525ZM102.304 217.903L105.383 220.195L75.9927 216.021L76.9724 215.776H74.5931L82.5705 203.093L102.304 217.822V217.903ZM109.442 224.204L108.602 222.404L139.812 242.942L112.101 229.441L111.821 229.359L109.442 224.286V224.204ZM82.1507 201.538L63.2569 189.674L73.0537 185.337L104.263 171.59L82.1507 201.538ZM60.7377 150.233L99.5049 146.388L63.3969 157.352L49.5415 161.525L49.8214 151.706L50.5211 151.952L50.2412 151.379H51.9207L51.0809 151.134L60.7377 150.152V150.233ZM49.5415 150.479L25.4694 113.166L102.024 145.242L49.5415 150.479ZM47.3022 49.1786L53.6001 35.2682L56.6791 36.0046L55.6994 35.5137L79.7714 39.2777L39.3248 66.853L47.3022 49.1786ZM54.2999 34.45L103.983 -3.27176L90.8277 20.2123L80.6112 38.5412L54.2999 34.45ZM152.547 48.6058L141.911 50.5696V50.0787H141.771V49.6696L137.012 35.841L148.909 42.878L157.166 47.7876L152.687 48.6058H152.547ZM129.875 59.5705L122.877 65.1346L120.218 63.3345L119.798 63.089L125.256 60.1433L136.453 54.17L129.735 59.5705H129.875ZM119.938 106.538L146.529 119.385L140.651 122.904L104.123 144.669L86.2093 100.974L80.7511 87.5549L120.078 106.538H119.938ZM190.755 151.952L160.945 160.462L157.026 152.852L155.906 150.806L190.755 151.952ZM105.243 172.245L106.363 219.622L88.0287 205.957L83.1303 202.275L105.243 172.326V172.245ZM102.024 225.759L77.8121 217.085L79.6315 217.331L105.943 221.013L105.243 221.504L106.503 221.258V221.831L106.922 221.586L110.141 228.541L102.024 225.677V225.759ZM73.7534 214.712L63.5368 191.065L81.5908 202.438L73.8934 214.794L73.7534 214.712ZM26.0292 186.564L13.8533 173.39L14.8329 173.881L12.4537 171.754L47.1623 162.998L26.0292 186.564ZM23.93 109.73L13.5734 72.9899L28.4084 70.5351L36.9456 69.1441L36.5258 70.2078L36.8057 70.0442L24.0699 109.812L23.93 109.73ZM14.2731 71.9262H13.8533L26.1692 46.7238L37.0856 68.1622H36.2458L36.5258 68.3258L28.9683 69.5532L14.4131 72.008V71.9262H14.2731ZM107.902 -2.69897L107.062 -4.41732L117.699 0.246754L115.46 0.410408L118.679 0.819538L103.703 32.4861L106.503 -4.09001L107.902 -2.69897ZM127.776 18.7394L120.498 1.06502L145.969 4.33805L143.87 5.31996L146.249 4.82901L131.134 27.3311L127.636 18.7394H127.776ZM201.531 40.9142L159.265 47.3784L158.705 47.4603L137.852 35.1046L201.671 40.996L201.531 40.9142ZM157.586 48.4422L150.588 78.9632L142.471 52.288L142.191 51.1424L154.647 48.9331L157.726 48.3603L157.586 48.4422ZM144.99 65.2983L149.608 80.4361L131.554 69.9624L123.997 65.6256L140.931 51.9607L144.99 65.2983ZM142.471 99.747L146.529 117.912V118.321L120.218 105.557L81.171 86.7367L138.552 82.5635L142.471 99.8288V99.747ZM144.99 246.461L92.0873 250.797L111.541 230.177L145.13 246.543L144.99 246.461ZM79.2116 225.922L74.8731 216.922L78.5119 218.231L110.421 229.605L105.383 235.005L91.1077 250.225L79.3516 225.922H79.2116ZM-2.10144 158.825L23.2302 150.479L15.1129 164.062L11.3341 170.526V170.363L11.1942 170.444L-2.10144 158.743V158.825ZM16.5124 164.389L24.9096 150.315L37.6454 156.943L47.4421 162.016L12.5937 170.854L16.3724 164.389H16.5124ZM25.7493 148.679L24.9096 149.006L19.7313 140.414L46.3225 150.315L34.5664 149.743L25.6094 149.252L25.8893 148.761L25.7493 148.679ZM19.8713 138.942H19.0316L24.2098 113.657L47.5821 149.824L19.3115 139.351L19.8713 139.023V138.942ZM-16.3767 58.4249L11.3341 72.4171L-14.2774 77.8176L-16.2368 58.4249H-16.3767ZM52.9003 33.959L7.83527 9.90221L103.983 -4.82645L73.1936 18.5757L52.9003 33.959ZM147.089 3.19249V3.51979L123.577 0.492233L159.405 -2.12619L147.509 3.43797L147.089 3.11066V3.19249ZM172.421 20.6214L203.071 40.1778L136.593 34.0408L147.929 4.91083L172.561 20.6214H172.421ZM158.845 48.1149L202.931 41.4052L151.428 80.1088L158.845 48.1149ZM162.344 97.7831L147.649 117.585L143.73 99.9106L139.951 83.1363L162.344 97.7831ZM149.608 120.122L222.384 137.387L193.414 150.888L149.748 120.122H149.608ZM191.874 152.279L180.538 168.072L171.161 164.471L161.784 160.871L191.874 152.197V152.279ZM149.608 189.919L107.482 219.458L106.223 170.608V170.444L172.421 169.135L179.138 168.972L149.468 189.755L149.608 189.919ZM3.91656 67.5076V67.5894L-16.5167 57.1975V56.952L-15.537 55.0701L3.91656 67.5076ZM85.3696 -21.6007L87.7488 -22.5826L104.543 -5.97201L9.9346 8.51117L85.2296 -21.6826L85.3696 -21.6007ZM32.887 -27.1649L93.6268 -29.0469L87.7488 -23.5646L32.887 -27.1649ZM93.7668 -27.7377L94.6065 -28.4741L103.703 -8.42678L88.8684 -22.9918L89.8481 -23.4009H89.1483L93.7668 -27.7377ZM201.671 35.2682L203.35 39.114L195.653 34.2045L148.489 4.09257L184.037 -3.18993L201.531 35.2682H201.671ZM151.848 82.2362L222.944 99.747L163.604 97.2104L151.848 82.2362ZM220.005 140.087L209.928 149.906L195.653 150.806L221.265 138.942L220.005 140.087ZM210.208 151.379L213.707 160.625L195.093 151.625L209.928 150.643L210.208 151.379ZM193.134 183.946L208.809 202.602L209.089 203.011L109.022 219.785L164.443 180.836L180.818 169.381L193.134 184.028V183.946ZM145.27 247.033L123.437 272.154L92.0873 251.37L107.202 250.143L145.27 247.033ZM84.6698 251.779L72.074 254.152L74.0333 218.476L89.7081 250.716H89.1483L89.2883 250.879L84.6698 251.779ZM31.4874 190.001L27.7087 187.71L61.2976 189.755L72.074 214.467L31.4874 190.001ZM16.0925 188.283L4.89624 190.001L5.31613 188.937L6.71564 185.173L11.614 172.326L24.6297 186.482H24.0699L24.6297 186.728L16.0925 188.037V188.283ZM-1.40167 164.389L-11.4783 159.234L-4.62061 158.989L-5.46033 159.725L-3.50098 159.071L7.83527 169.135L-1.40167 164.471V164.389ZM13.2935 144.26L17.9119 140.169L23.2302 148.924H22.2505L23.0902 149.333L0.977539 156.616L-1.12177 157.352L13.4334 144.26H13.2935ZM13.9932 105.229L-5.74023 92.9554L-5.32034 92.7918H-5.74023L3.07687 83.2181L12.1739 73.5627L22.6704 110.466L14.1332 105.147L13.9932 105.229ZM-31.3517 85.4274L-28.4127 80.927L-27.9929 81.3362V80.3542L-19.7356 79.2087L-17.9162 78.9632L-31.2118 85.4274H-31.3517ZM-29.2524 78.6359L-33.3111 74.8719L-28.9725 73.4809L-29.8122 76.263L-28.9725 75.1174V77.5722L-29.2524 78.6359ZM-4.76056 52.1243L24.6297 45.5783L12.0339 71.5171L7.41541 68.5713L-14.6972 54.3336L-4.76056 52.1243ZM5.17618 35.0227L20.851 27.3311L24.7697 44.1872L1.11749 37.0684L5.17618 35.1046V35.0227ZM17.2122 20.9487L8.67502 11.3751L49.2615 33.0589L25.3295 27.0856L22.1105 26.2674V25.7764L21.6907 25.9401L17.2122 20.9487ZM11.614 -0.0805473L24.7697 -26.9194L85.9294 -22.91L41.2842 -5.07192L7.41541 8.51117L11.614 -0.0805473ZM114.9 -29.456L117.699 -37.1476L118.539 -0.571503L106.643 -5.80835L107.482 -6.46296L106.782 -6.46296L107.622 -7.93583L107.062 -7.44487L115.04 -29.456H114.9ZM129.035 -30.6834L160.245 -3.18993L138.272 -1.55341L119.938 -0.244198L119.098 -39.4388L129.035 -30.6834ZM121.198 -39.1115L187.256 -10.5543L161.784 -3.35358L121.058 -38.7023L121.198 -39.1115ZM188.935 83.9546L151.708 81.0907L178.299 61.0433L204.61 41.3233L229.382 70.2078L244.917 88.3732L189.075 84.0364L188.935 83.9546ZM215.386 157.516L214.547 159.725L213.287 156.534L210.908 150.315L218.745 142.624L221.964 139.514L215.386 157.598V157.516ZM211.468 161.853L181.938 167.908L187.116 160.625L193.274 152.034L213.007 161.607L211.328 161.935L211.468 161.853ZM210.348 204.811V204.648L213.147 207.512H212.587L213.427 208.003L156.466 240.078L209.648 203.993L210.348 204.811ZM189.075 253.989L154.787 251.207L149.188 247.77L148.349 247.279L155.486 248.424L189.075 253.907V253.989ZM149.328 257.262L125.676 270.763L131.974 263.644L145.83 247.688L149.328 257.262ZM100.205 269.372L96.4259 268.881H96.7058L95.3063 268.717L95.5862 268.226L94.8864 268.39L90.9677 252.352L120.918 272.154L100.065 269.372H100.205ZM83.97 262.089L72.074 254.889L72.7738 254.725L77.952 253.743L89.4282 251.534L93.3469 267.735L83.97 262.008V262.089ZM20.851 190.165L-5.04047 211.439L3.63666 191.31L3.77661 190.901L15.1129 189.101L23.5101 187.792L20.711 190.165H20.851ZM-7.83954 197.692L-6.30002 186.401L-5.88019 186.646V186.564L0.137817 189.592L2.37708 190.655L-7.83954 197.692ZM-8.81918 175.027L-12.7379 159.807L-0.841858 165.862L9.9346 171.345L-3.92081 182.473L-6.30002 184.437L-8.67923 175.027H-8.81918ZM-4.90051 153.834L12.7336 142.787L7.69534 147.37L-4.06076 157.925L-11.8982 158.252L-4.90051 153.834ZM16.5124 115.212L22.2505 112.594L16.9323 138.369L16.0925 138.041L16.5124 138.614L-36.9499 139.105L16.2325 115.13L16.5124 115.212ZM-18.0561 89.7642L-31.9115 86.4912L-15.9568 78.7996L-8.39935 92.1372L-18.1961 89.846L-18.0561 89.7642ZM-11.4783 49.915L-0.14209 37.6412L0.137817 37.8048V37.723L5.59601 39.3595L23.65 44.8418L-3.50098 50.8969L-14.6972 53.4335L-11.4783 49.9969V49.915ZM6.29581 10.8023L14.8329 20.3759L20.1512 26.431L7.1355 32.8953L0.557709 36.0865L6.29581 10.8023ZM25.1895 -28.4741L24.2098 -28.065L19.8713 -32.9745L84.3899 -29.7015L67.8754 -29.2105L26.3092 -27.9013L28.4084 -28.8014L25.0496 -28.065V-28.4741H25.1895ZM112.101 -37.4749L116.999 -39.8479L115.46 -35.4293L105.383 -7.60852L95.4462 -29.456L112.241 -37.4749H112.101ZM243.517 15.7937L224.344 9.41125L186.136 -3.27176L189.495 -4.00819L185.436 -3.84454L186.556 -5.80835L188.795 -9.40869L243.517 15.7937ZM226.863 100.238L186.556 90.337L155.346 82.6454L228.682 88.3732L244.357 89.6006L226.723 100.238H226.863ZM224.623 119.631L223.084 136.569L187.816 113.494L164.863 98.4377L226.443 101.056L224.763 119.631H224.623ZM212.168 177.727L209.368 202.111L181.798 169.381H182.917L182.217 169.135L188.935 167.744L213.707 162.671L212.028 177.727H212.168ZM211.468 204.402L245.197 210.048L239.598 209.721L215.386 208.166L215.666 207.348L214.687 207.839V207.675L211.328 204.484L211.468 204.402ZM254.434 214.221L263.251 230.75L256.113 232.959V232.878H255.973L255.693 229.359L254.434 214.139V214.221ZM216.926 248.343L200.411 254.807L215.107 209.312L229.522 218.231L254.294 233.614L216.926 248.261V248.343ZM179.418 267.081L151.288 257.671L154.927 252.761L179.418 267.081ZM150.168 259.225L150.728 258.489L181.518 268.717L125.396 272.809L150.028 258.735V259.225H150.168ZM121.478 273.545L86.4892 285.164L88.5885 281.564L95.1663 270.354L95.8661 270.763V270.108L103.284 271.09L121.478 273.545ZM85.2296 284.837L79.4915 274.691L93.6268 270.436L85.2296 284.837ZM78.2319 267.981L65.916 267.081L71.5142 256.034L83.5502 263.399L92.7871 269.045L78.092 267.981H78.2319ZM64.5165 266.917L31.2075 262.58L70.2546 255.789L64.6564 266.835L64.5165 266.917ZM28.6884 262.171L8.67502 239.751L69.135 255.216L28.6884 262.253V262.171ZM40.3045 246.87L8.81497 238.851L37.5054 229.114L72.6338 217.167L70.5345 254.725L40.3045 247.033V246.87ZM6.29581 239.096L0.557709 248.67L1.53735 234.105L6.15582 238.687L5.59601 238.851L6.29581 239.015V239.096ZM56.2592 215.449L-4.76056 213.648L22.3904 191.228L25.7493 188.446V188.528L26.0292 188.364L71.2343 215.612L69.2749 215.367L70.6745 215.858L56.2592 215.449ZM-27.433 147.942L-37.0898 140.66L16.3724 140.169L7.27545 145.897L-13.2977 158.743L-27.433 148.024V147.942ZM-25.3337 100.893L-31.7716 87.8822L-17.9162 91.1553L-8.11945 93.4464L-25.1938 100.811L-25.3337 100.893ZM-38.0695 72.9081L-47.4464 68.6532L-34.0109 72.0898L-29.3924 73.3172L-33.731 74.7083L-34.8506 73.6445V74.381L-38.0695 72.9081ZM-26.8732 34.6136L-27.713 30.1132L-21.9749 42.7144L-16.6566 54.4155H-17.0765V54.5791L-23.2344 56.7066L-27.2931 34.5318L-26.8732 34.6136ZM-25.0538 27.3311L-0.841858 37.723L-0.701874 37.8048L-13.0178 50.9788L-15.397 53.5972L-26.5933 29.2131L-28.1328 25.9401L-25.0538 27.2493V27.3311ZM4.05655 8.26569L4.89624 9.16577L-27.433 -0.980629L-12.0381 -9.98147L4.05655 8.34752V8.26569ZM-4.48065 -19.8006L20.1512 -25.2829L13.7133 -22.419L-10.9185 -11.618L-9.09912 -18.4914L-8.39935 -18.3277L-8.81918 -18.8187L-4.48065 -19.8006ZM-5.74023 -20.3734L19.0316 -32.0744L23.5101 -26.9194L-5.74023 -20.3734ZM189.915 -9.81782L213.427 -22.5826L249.395 17.5938L190.055 -9.73599L189.775 -9.81782H189.915ZM232.321 102.202L274.447 108.666L225.183 136.65L225.603 135.587L224.903 136.323L226.303 121.022L228.122 101.629L232.461 102.284L232.321 102.202ZM275.706 117.421L278.086 151.379L225.183 137.796L251.075 123.067L275.147 109.402L275.706 117.503V117.421ZM228.962 159.643L215.806 161.771L224.344 138.696V138.86L224.623 138.451L264.23 148.597L276.966 151.87L229.102 159.643H228.962ZM254.853 247.279L255.833 238.769L256.253 234.923V235.087V234.269L262.971 232.141L254.713 247.361L254.853 247.279ZM252.054 250.143L252.334 250.388L202.791 255.216L250.095 236.642L254.853 234.76L254.573 237.542L253.174 250.225H252.194L252.054 250.143ZM196.633 256.607L198.172 256.443L183.757 268.472L156.886 252.761L161.084 253.089L197.752 256.034L196.633 256.525V256.607ZM79.2116 273.954H78.9317L67.3156 268.063L92.6472 269.945L79.2116 274.036V273.954ZM26.5891 261.517L0.697662 251.37L7.41541 239.996L26.5891 261.517ZM2.09717 229.032L1.25745 231.077L-5.04047 214.549L50.5211 216.185L70.2546 216.758L1.95721 232.223V229.032H2.09717ZM-8.67923 198.347L-46.6067 164.471L-24.3541 176.745L-7.13977 186.237L-6.99982 186.319L-8.67923 198.347ZM-26.5933 106.866L-25.0538 102.284L-10.0788 105.557L22.2505 112.594L-37.3698 139.432L-26.5933 106.866ZM-33.591 85.5911L-49.9656 68.5713L-34.5707 75.5265L-33.591 85.5093V85.5911ZM-26.5933 24.4672L5.59601 11.0478L-0.282043 37.0684L-13.4377 31.4224L-28.1328 25.1218L-26.7333 24.549L-26.5933 24.4672ZM-28.5526 24.3036L-27.9929 1.31049V-0.244198L5.03619 10.2295L2.65698 11.2114H2.93692L-28.5526 24.3036ZM-15.8169 -11.6998L-26.7333 -13.5L-10.6386 -18.3277L-12.458 -11.2089L-15.8169 -11.7816V-11.6998ZM25.4694 -32.7291L116.579 -40.0116L95.3063 -29.5378V-29.7833L94.6065 -29.2105L58.9184 -31.0107L25.4694 -32.7291ZM268.429 3.76527L298.799 50.2423L258.772 23.3216L252.194 18.903H252.474L252.194 18.7394L268.429 3.84709V3.76527ZM296 52.2062L270.668 54.3336L252.894 20.5396L267.589 30.4405L299.499 51.8789L296 52.2062ZM294.46 53.1881L278.925 56.5429H278.646L276.546 56.052L272.767 55.0701L294.46 53.2699V53.1881ZM259.892 74.7901L250.235 84.2819L270.528 55.3155L274.867 56.3793L277.806 57.1157L259.892 74.7901ZM258.772 98.1104L273.327 107.439L254.573 104.575L228.402 100.565L245.756 90.0097L246.036 90.337V90.0915L258.772 98.1923V98.1104ZM290.402 127.159L279.065 149.252L277.386 125.686L276.126 108.83L281.025 110.63L296 116.112L290.402 127.159ZM296.56 118.076L304.677 166.271L279.905 151.952H280.605L279.345 151.543L279.625 151.134L296.56 118.076ZM254.713 198.674L253.034 208.903L252.474 207.757L252.754 210.457L238.759 208.166L211.608 203.666L248.276 189.674L256.673 186.482L254.713 198.756V198.674ZM256.953 193.438L257.932 187.055L269.688 201.62L263.67 204.893L254.434 209.966L257.093 193.519L256.953 193.438ZM273.887 201.702L303.697 198.265L265.07 229.359L268.009 216.185L271.228 202.029L273.887 201.702ZM281.445 251.288L254.573 249.979V249.816L264.09 232.305L264.37 232.796V232.223L281.585 251.288H281.445ZM23.3701 261.026L-7.41965 254.725L-0.981812 252.025V253.907L0.137817 251.779L6.85559 254.398L23.5101 260.944L23.3701 261.026ZM-3.78088 244.579L-0.14209 236.232L-1.12177 250.961L-7.97949 253.743L-3.92081 244.497L-3.78088 244.579ZM-44.7873 167.499L-9.09912 199.329V200.475L-8.95917 200.229L-7.27972 211.603L-44.7873 167.417V167.499ZM-49.6856 161.035L-38.6293 141.56V141.969L-38.0695 140.987L-14.6972 158.743H-15.1171L-49.6856 160.953V161.035ZM-43.3878 96.2285L-33.451 88.2095V88.946L-33.0312 88.2914L-26.7333 100.974L-51.9249 103.102L-43.3878 96.1466V96.2285ZM-52.7646 102.447L-51.9249 68.244L-33.8709 86.9821L-34.2907 87.2276H-34.0109L-45.3471 96.5558L-52.6247 102.529L-52.7646 102.447ZM-46.4667 56.8702L-29.9522 26.7583L-24.494 57.0339L-51.3651 65.8711L-46.4667 56.8702ZM-28.2728 -2.37167V-13.2545L-16.6566 -11.3725L-13.5776 -10.8816L-18.1961 -8.1813L-28.2728 -2.28984V-2.37167ZM273.607 -31.5017L298.799 47.9512L269.409 2.94701V2.78336V2.70153L270.388 -4.82645L273.747 -31.4198L273.607 -31.5017ZM300.478 52.7789L307.756 64.1527L280.745 56.952L300.478 52.6971V52.7789ZM291.101 60.716L307.476 65.0528L247.996 87.9641L264.51 71.7625L279.065 57.5248L291.101 60.716ZM302.158 72.8263L275.287 107.52L256.393 95.4102L247.156 89.4369L248.695 88.8641L307.476 66.1984L302.298 72.8263H302.158ZM300.618 76.8357L307.616 67.7531L296.28 115.376L276.546 108.175L276.826 108.011H276.406L300.618 76.8357ZM271.648 161.853L257.373 184.6L256.953 184.109V184.764L241.978 176.663L215.946 162.426L277.386 152.443L271.508 161.853H271.648ZM206.289 277.391L211.188 291.465L185.996 270.272L187.816 270.927L185.156 269.372H185.856L184.737 268.963L197.892 257.998L199.292 256.853L206.429 277.473L206.289 277.391ZM210.628 292.447L186.416 287.046L126.236 273.545L183.337 269.454L210.628 292.529V292.447ZM47.4421 285.41L29.3881 292.038L32.1872 290.156L65.0763 267.899L65.4962 268.145L77.5322 274.363L47.4421 285.41ZM26.5891 292.692L28.1285 274.036L28.9683 263.399L30.2278 263.89L29.808 263.399L33.3069 264.135L31.9073 263.562L63.8167 267.654L58.2186 271.418L26.729 292.692H26.5891ZM-6.85986 233.778L-5.74023 217.085L0.137817 232.387V232.632L-3.78088 241.387L-8.11945 251.125L-6.99982 233.696L-6.85986 233.778ZM-50.1055 159.316L-52.6247 107.848L-39.4691 139.842H-40.0289L-39.609 140.169L-40.7286 140.66H-39.609L-50.1055 159.316ZM-50.3854 109.648L-52.6247 104.247L-26.7333 102.038L-38.6293 138.287L-50.3854 109.648ZM-55.1439 32.6498L-56.4034 18.8212L-30.3721 25.1218L-52.0649 64.6437L-55.1439 32.6498ZM-31.2118 -5.72653L-43.8076 -25.2011L-30.0922 -13.7455L-30.9319 -13.5L-29.6723 -13.3363V-3.35358L-31.2118 -5.80835V-5.72653ZM-39.609 -26.0193L-11.7582 -19.2278L-28.8326 -14.1546L-41.9882 -25.2011L-44.5074 -27.2467L-39.749 -26.1012L-39.609 -26.0193ZM-20.2954 -34.7747L-27.433 -44.7574L16.2325 -33.0564L12.4537 -32.7291L16.9323 -32.4836L-9.93881 -19.8824L-20.4353 -34.7747H-20.2954ZM1.11749 -45.0029L188.096 -44.1028L120.638 -41.3208V-41.4026L119.518 -41.3208L119.938 -42.0572L118.818 -41.4844V-43.8574L117.839 -41.2389L117.419 -41.5662V-41.1571H116.999L115.32 -41.8935L116.159 -41.2389L1.11749 -44.9211V-45.0029ZM209.089 -33.1382L212.168 -24.4646L211.048 -24.9556L212.307 -23.6464H211.888L212.307 -23.4009L189.915 -11.2907L200.691 -32.6472L205.87 -42.7936L209.229 -33.1382H209.089ZM280.885 176.254L258.772 184.6L271.088 164.798L277.946 153.916V154.325L278.785 152.606L291.241 159.807L304.257 167.335L280.745 176.254H280.885ZM264.93 187.955L302.857 197.611L271.228 201.211V200.638L270.668 201.047L258.772 186.401L264.93 187.955ZM302.158 203.42L282.284 250.716L264.65 230.996L275.147 222.486L303.557 199.656L302.018 203.42H302.158ZM302.298 206.53L286.343 268.799L285.923 266.917L283.264 252.352H283.684L283.264 251.861L302.298 206.53ZM285.363 270.845L283.544 269.699L254.993 250.961L258.632 251.125L281.864 252.27L284.524 266.835L285.223 270.845H285.363ZM212.727 292.119L200.271 256.034L252.194 250.961L212.867 292.119H212.727ZM198.732 292.938L32.1872 293.429L83.97 286.637V286.964L84.6698 286.719L85.0897 287.374L85.6495 286.555L188.795 292.447L198.732 293.02V292.938ZM25.1895 292.283L-7.5596 255.707L26.0292 262.58H25.4694L27.5688 262.908L25.1895 292.283ZM-9.51898 252.188L-48.2861 165.371L-6.99982 213.894L-7.5596 214.303H-7.13977L-7.83954 215.94L-6.99982 215.285L-8.11945 231.487L-9.51898 252.188ZM-54.3041 66.5257L-53.7443 66.7712H-54.0242L-53.3245 67.0166L-53.6044 67.6712L-53.0445 67.5076L-53.4644 83.4636L-54.1642 66.5257H-54.3041ZM-54.3041 65.9529V65.7892L-54.0242 66.0347H-54.3041V65.9529ZM-55.2838 45.0055L-53.3245 65.9529L-54.4441 65.4619L-55.2838 45.0055ZM-45.9069 -26.4285L-36.2501 -11.3725L-29.6723 -1.14428L-29.9522 -0.980629L-55.9836 16.8574L-45.767 -26.4285H-45.9069ZM206.709 -44.021L270.668 -34.6929L213.847 -23.9737L206.709 -43.9392V-44.021ZM303.417 51.6334L301.458 51.797L285.223 0.737713L303.417 51.6334ZM303.557 52.1243L306.216 59.6523L305.797 59.0795L302.718 54.17L301.738 52.5335H302.158L302.018 52.3698L303.557 52.0425V52.1243ZM304.957 160.462L297.399 116.03V115.785L307.756 71.8444L304.817 160.462H304.957ZM213.987 292.283L252.334 252.188V253.743L253.594 251.207L285.083 271.908L213.987 292.365V292.283Z" fill="url(#paint1_linear_2297_30)"/>
</g>
</g>
<g filter="url(#filter0_f_2297_30)">
<path d="M193 147.5C193 219.849 160.647 294 101 294C41.3533 294 -63.5 297.849 -63.5 225.5C-63.5 153.151 -90.1467 -26.5 -30.4999 -26.5C29.1469 -26.5 193 75.1507 193 147.5Z" fill="#FFDADA"/>
</g>
</g>
<defs>
<filter id="filter0_f_2297_30" x="-100.633" y="-57.7" width="324.833" height="382.936" filterUnits="userSpaceOnUse" color-interpolation-filters="sRGB">
<feFlood flood-opacity="0" result="BackgroundImageFix"/>
<feBlend mode="normal" in="SourceGraphic" in2="BackgroundImageFix" result="shape"/>
<feGaussianBlur stdDeviation="15.6" result="effect1_foregroundBlur_2297_30"/>
</filter>
<linearGradient id="paint0_linear_2297_30" x1="316.022" y1="-46.6401" x2="202.484" y2="352.934" gradientUnits="userSpaceOnUse">
<stop stop-color="#FF0F7B"/>
<stop offset="1" stop-color="#F89B29"/>
</linearGradient>
<linearGradient id="paint1_linear_2297_30" x1="287.667" y1="-46.5576" x2="173.721" y2="353.101" gradientUnits="userSpaceOnUse">
<stop stop-color="#FF1B6B"/>
<stop offset="1" stop-color="#45CAFF"/>
</linearGradient>
<clipPath id="clip0_2297_30">
<rect width="279.907" height="245.478" fill="white"/>
</clipPath>
</defs>
</svg>
